<svg width="965px" height="178px"
 viewBox="0.00 0.00 965.14 178.00" xmlns="http://www.w3.org/2000/svg" xmlns:xlink="http://www.w3.org/1999/xlink">
<g id="graph0" class="graph" transform="scale(1.0 1.0) rotate(0) translate(4 174)">
<title>AP</title>
<polygon fill="white" stroke="transparent" points="-4,4 -4,-174 961.14,-174 961.14,4 -4,4"/>
<!-- 0 -->
<g id="node1" class="node">
<title>0</title>
<ellipse fill="black" stroke="black" cx="1.8" cy="-22" rx="1.8" ry="1.8"/>
</g>
<!-- 1 -->
<g id="node2" class="node">
<title>1</title>
<ellipse fill="none" stroke="black" cx="81.7" cy="-22" rx="18" ry="18"/>
<text text-anchor="middle" x="81.7" y="-17.8" font-family="Times,serif" font-size="14.00">1</text>
</g>
<!-- 0&#45;&gt;1 -->
<g id="edge1" class="edge">
<title>0&#45;&gt;1</title>
<path fill="none" stroke="black" d="M3.67,-22C8.58,-22 33.14,-22 53.23,-22"/>
<polygon fill="black" stroke="black" points="53.48,-25.5 63.48,-22 53.48,-18.5 53.48,-25.5"/>
<text text-anchor="middle" x="33.65" y="-26.2" font-family="Times,serif" font-size="14.00">start</text>
</g>
<!-- 2 -->
<g id="node3" class="node">
<title>2</title>
<ellipse fill="none" stroke="black" cx="178.98" cy="-69" rx="18" ry="18"/>
<text text-anchor="middle" x="178.98" y="-64.8" font-family="Times,serif" font-size="14.00">2</text>
</g>
<!-- 1&#45;&gt;2 -->
<g id="edge2" class="edge">
<title>1&#45;&gt;2</title>
<path fill="none" stroke="black" d="M98.43,-29.76C113.42,-37.15 136.2,-48.39 153.55,-56.95"/>
<polygon fill="black" stroke="black" points="152.02,-60.1 162.54,-61.38 155.12,-53.82 152.02,-60.1"/>
<text text-anchor="middle" x="130.34" y="-56.2" font-family="Times,serif" font-size="14.00"> null</text>
</g>
<!-- 6 -->
<g id="node4" class="node">
<title>6</title>
<ellipse fill="none" stroke="black" cx="578.88" cy="-22" rx="18" ry="18"/>
<text text-anchor="middle" x="578.88" y="-17.8" font-family="Times,serif" font-size="14.00">6</text>
</g>
<!-- 1&#45;&gt;6 -->
<g id="edge3" class="edge">
<title>1&#45;&gt;6</title>
<path fill="none" stroke="black" d="M99.43,-17.46C118.34,-12.73 150.14,-6 177.98,-6 177.98,-6 177.98,-6 482.6,-6 506.09,-6 532.4,-10.79 551.41,-15.13"/>
<polygon fill="black" stroke="black" points="550.62,-18.54 561.16,-17.46 552.24,-11.73 550.62,-18.54"/>
<text text-anchor="middle" x="330.29" y="-10.2" font-family="Times,serif" font-size="14.00"> null</text>
</g>
<!-- 3 -->
<g id="node5" class="node">
<title>3</title>
<ellipse fill="none" stroke="black" cx="278.96" cy="-152" rx="18" ry="18"/>
<text text-anchor="middle" x="278.96" y="-147.8" font-family="Times,serif" font-size="14.00">3</text>
</g>
<!-- 2&#45;&gt;3 -->
<g id="edge4" class="edge">
<title>2&#45;&gt;3</title>
<path fill="none" stroke="black" d="M191.42,-82.24C198.01,-89.56 206.62,-98.64 214.98,-106 227.57,-117.09 242.73,-128.22 255.02,-136.76"/>
<polygon fill="black" stroke="black" points="253.15,-139.72 263.38,-142.47 257.1,-133.94 253.15,-139.72"/>
<text text-anchor="middle" x="227.62" y="-130.2" font-family="Times,serif" font-size="14.00"> null</text>
</g>
<!-- 10 -->
<g id="node6" class="node">
<title>10</title>
<ellipse fill="none" stroke="black" cx="278.96" cy="-95" rx="20.89" ry="20.89"/>
<text text-anchor="middle" x="278.96" y="-90.8" font-family="Times,serif" font-size="14.00">10</text>
</g>
<!-- 2&#45;&gt;10 -->
<g id="edge5" class="edge">
<title>2&#45;&gt;10</title>
<path fill="none" stroke="black" d="M196.6,-73.41C210.8,-77.18 231.56,-82.69 248.55,-87.2"/>
<polygon fill="black" stroke="black" points="247.99,-90.67 258.56,-89.85 249.79,-83.9 247.99,-90.67"/>
<text text-anchor="middle" x="227.62" y="-89.2" font-family="Times,serif" font-size="14.00"> null</text>
</g>
<!-- 7 -->
<g id="node9" class="node">
<title>7</title>
<ellipse fill="none" stroke="black" cx="660.6" cy="-22" rx="18" ry="18"/>
<text text-anchor="middle" x="660.6" y="-17.8" font-family="Times,serif" font-size="14.00">7</text>
</g>
<!-- 6&#45;&gt;7 -->
<g id="edge6" class="edge">
<title>6&#45;&gt;7</title>
<path fill="none" stroke="black" d="M597.18,-22C607.41,-22 620.61,-22 632.23,-22"/>
<polygon fill="black" stroke="black" points="632.33,-25.5 642.33,-22 632.33,-18.5 632.33,-25.5"/>
<text text-anchor="middle" x="619.74" y="-26.2" font-family="Times,serif" font-size="14.00"> a</text>
</g>
<!-- 4 -->
<g id="node7" class="node">
<title>4</title>
<ellipse fill="none" stroke="black" cx="381.62" cy="-152" rx="18" ry="18"/>
<text text-anchor="middle" x="381.62" y="-147.8" font-family="Times,serif" font-size="14.00">4</text>
</g>
<!-- 3&#45;&gt;4 -->
<g id="edge7" class="edge">
<title>3&#45;&gt;4</title>
<path fill="none" stroke="black" d="M297.03,-152C312.44,-152 335.36,-152 353.31,-152"/>
<polygon fill="black" stroke="black" points="353.46,-155.5 363.46,-152 353.46,-148.5 353.46,-155.5"/>
<text text-anchor="middle" x="330.29" y="-156.2" font-family="Times,serif" font-size="14.00"> b</text>
</g>
<!-- 11 -->
<g id="node13" class="node">
<title>11</title>
<ellipse fill="none" stroke="black" cx="381.62" cy="-95" rx="20.89" ry="20.89"/>
<text text-anchor="middle" x="381.62" y="-90.8" font-family="Times,serif" font-size="14.00">11</text>
</g>
<!-- 10&#45;&gt;11 -->
<g id="edge8" class="edge">
<title>10&#45;&gt;11</title>
<path fill="none" stroke="black" d="M299.85,-95C314.32,-95 334.18,-95 350.59,-95"/>
<polygon fill="black" stroke="black" points="350.78,-98.5 360.78,-95 350.78,-91.5 350.78,-98.5"/>
<text text-anchor="middle" x="330.29" y="-99.2" font-family="Times,serif" font-size="14.00"> a</text>
</g>
<!-- 5 -->
<g id="node8" class="node">
<title>5</title>
<ellipse fill="none" stroke="black" cx="481.6" cy="-65" rx="18" ry="18"/>
<text text-anchor="middle" x="481.6" y="-60.8" font-family="Times,serif" font-size="14.00">5</text>
</g>
<!-- 4&#45;&gt;5 -->
<g id="edge9" class="edge">
<title>4&#45;&gt;5</title>
<path fill="none" stroke="black" d="M396.99,-142.23C410.16,-133 429.94,-118.45 445.6,-104 451.48,-98.57 457.46,-92.27 462.76,-86.33"/>
<polygon fill="black" stroke="black" points="465.59,-88.42 469.52,-78.58 460.31,-83.82 465.59,-88.42"/>
<text text-anchor="middle" x="432.96" y="-128.2" font-family="Times,serif" font-size="14.00"> null</text>
</g>
<!-- 5&#45;&gt;2 -->
<g id="edge10" class="edge">
<title>5&#45;&gt;2</title>
<path fill="none" stroke="black" d="M463.58,-64.7C426.35,-64.12 334.86,-63.04 258.26,-65 241.3,-65.43 222.28,-66.39 207.24,-67.27"/>
<polygon fill="black" stroke="black" points="206.85,-63.78 197.08,-67.87 207.27,-70.77 206.85,-63.78"/>
<text text-anchor="middle" x="330.29" y="-69.2" font-family="Times,serif" font-size="14.00"> null</text>
</g>
<!-- 5&#45;&gt;6 -->
<g id="edge11" class="edge">
<title>5&#45;&gt;6</title>
<path fill="none" stroke="black" d="M498.33,-57.9C513.09,-51.24 535.41,-41.17 552.65,-33.39"/>
<polygon fill="black" stroke="black" points="554.45,-36.41 562.12,-29.11 551.57,-30.03 554.45,-36.41"/>
<text text-anchor="middle" x="530.24" y="-53.2" font-family="Times,serif" font-size="14.00"> null</text>
</g>
<!-- 8 -->
<g id="node10" class="node">
<title>8</title>
<ellipse fill="none" stroke="black" cx="743.1" cy="-22" rx="18" ry="18"/>
<text text-anchor="middle" x="743.1" y="-17.8" font-family="Times,serif" font-size="14.00">8</text>
</g>
<!-- 7&#45;&gt;8 -->
<g id="edge12" class="edge">
<title>7&#45;&gt;8</title>
<path fill="none" stroke="black" d="M678.67,-22C689.13,-22 702.75,-22 714.69,-22"/>
<polygon fill="black" stroke="black" points="715.05,-25.5 725.05,-22 715.05,-18.5 715.05,-25.5"/>
<text text-anchor="middle" x="701.85" y="-26.2" font-family="Times,serif" font-size="14.00"> b</text>
</g>
<!-- 9 -->
<g id="node11" class="node">
<title>9</title>
<ellipse fill="none" stroke="black" cx="829.6" cy="-22" rx="18" ry="18"/>
<ellipse fill="none" stroke="black" cx="829.6" cy="-22" rx="22" ry="22"/>
<text text-anchor="middle" x="829.6" y="-17.8" font-family="Times,serif" font-size="14.00">9</text>
</g>
<!-- 8&#45;&gt;9 -->
<g id="edge13" class="edge">
<title>8&#45;&gt;9</title>
<path fill="none" stroke="black" d="M761.2,-22C771.49,-22 784.92,-22 797.07,-22"/>
<polygon fill="black" stroke="black" points="797.32,-25.5 807.32,-22 797.32,-18.5 797.32,-25.5"/>
<text text-anchor="middle" x="784.35" y="-26.2" font-family="Times,serif" font-size="14.00"> b</text>
</g>
<!-- 9 accepting rules -->
<g id="node12" class="node">
<title>9 accepting rules</title>
<polygon fill="none" stroke="blue" points="956.92,-40 888.82,-40 888.82,-4 956.92,-4 956.92,-40"/>
<text text-anchor="middle" x="922.87" y="-17.8" font-family="Times,serif" font-size="14.00">(a|b)*abb</text>
</g>
<!-- 9&#45;&gt;9 accepting rules -->
<g id="edge14" class="edge">
<title>9&#45;&gt;9 accepting rules</title>
<path fill="none" stroke="blue" stroke-dasharray="5,2" d="M851.77,-22C862.72,-22 876.34,-22 888.66,-22"/>
</g>
<!-- 11&#45;&gt;5 -->
<g id="edge15" class="edge">
<title>11&#45;&gt;5</title>
<path fill="none" stroke="black" d="M401.52,-89.22C416.53,-84.62 437.7,-78.14 454.35,-73.04"/>
<polygon fill="black" stroke="black" points="455.51,-76.34 464.05,-70.07 453.46,-69.65 455.51,-76.34"/>
<text text-anchor="middle" x="432.96" y="-87.2" font-family="Times,serif" font-size="14.00"> null</text>
</g>
</g>
</svg>
