<svg width="577px" height="207px"
 viewBox="0.00 0.00 577.48 206.80" xmlns="http://www.w3.org/2000/svg" xmlns:xlink="http://www.w3.org/1999/xlink">
<g id="graph0" class="graph" transform="scale(1.0 1.0) rotate(0) translate(4 202.8)">
<title>AN</title>
<polygon fill="white" stroke="transparent" points="-4,4 -4,-202.8 573.48,-202.8 573.48,4 -4,4"/>
<!-- 0 -->
<g id="node1" class="node">
<title>0</title>
<ellipse fill="black" stroke="black" cx="1.8" cy="-80" rx="1.8" ry="1.8"/>
</g>
<!-- 1 -->
<g id="node2" class="node">
<title>1</title>
<ellipse fill="none" stroke="black" cx="81.7" cy="-80" rx="18" ry="18"/>
<text text-anchor="middle" x="81.7" y="-75.8" font-family="Times,serif" font-size="14.00">1</text>
</g>
<!-- 0&#45;&gt;1 -->
<g id="edge1" class="edge">
<title>0&#45;&gt;1</title>
<path fill="none" stroke="black" d="M3.67,-80C8.58,-80 33.14,-80 53.23,-80"/>
<polygon fill="black" stroke="black" points="53.48,-83.5 63.48,-80 53.48,-76.5 53.48,-83.5"/>
<text text-anchor="middle" x="33.65" y="-84.2" font-family="Times,serif" font-size="14.00">start</text>
</g>
<!-- 2 -->
<g id="node3" class="node">
<title>2</title>
<ellipse fill="none" stroke="black" cx="178.98" cy="-138" rx="18" ry="18"/>
<text text-anchor="middle" x="178.98" y="-133.8" font-family="Times,serif" font-size="14.00">2</text>
</g>
<!-- 1&#45;&gt;2 -->
<g id="edge2" class="edge">
<title>1&#45;&gt;2</title>
<path fill="none" stroke="black" d="M97.59,-89.06C112.83,-98.34 136.75,-112.9 154.53,-123.73"/>
<polygon fill="black" stroke="black" points="152.84,-126.79 163.2,-129 156.48,-120.81 152.84,-126.79"/>
<text text-anchor="middle" x="130.34" y="-119.2" font-family="Times,serif" font-size="14.00"> null</text>
</g>
<!-- 4 -->
<g id="node4" class="node">
<title>4</title>
<ellipse fill="none" stroke="black" cx="178.98" cy="-80" rx="18" ry="18"/>
<text text-anchor="middle" x="178.98" y="-75.8" font-family="Times,serif" font-size="14.00">4</text>
</g>
<!-- 1&#45;&gt;4 -->
<g id="edge3" class="edge">
<title>1&#45;&gt;4</title>
<path fill="none" stroke="black" d="M99.74,-80C113.87,-80 134.25,-80 150.66,-80"/>
<polygon fill="black" stroke="black" points="150.77,-83.5 160.77,-80 150.77,-76.5 150.77,-83.5"/>
<text text-anchor="middle" x="130.34" y="-84.2" font-family="Times,serif" font-size="14.00"> null</text>
</g>
<!-- 6 -->
<g id="node5" class="node">
<title>6</title>
<ellipse fill="none" stroke="black" cx="178.98" cy="-25" rx="18" ry="18"/>
<text text-anchor="middle" x="178.98" y="-20.8" font-family="Times,serif" font-size="14.00">6</text>
</g>
<!-- 1&#45;&gt;6 -->
<g id="edge4" class="edge">
<title>1&#45;&gt;6</title>
<path fill="none" stroke="black" d="M97.65,-71.03C103.84,-67.33 111.1,-63.03 117.7,-59.2 129.45,-52.38 142.56,-44.92 153.55,-38.71"/>
<polygon fill="black" stroke="black" points="155.58,-41.59 162.57,-33.63 152.14,-35.49 155.58,-41.59"/>
<text text-anchor="middle" x="130.34" y="-63.2" font-family="Times,serif" font-size="14.00"> null</text>
</g>
<!-- 2&#45;&gt;2 -->
<g id="edge5" class="edge">
<title>2&#45;&gt;2</title>
<path fill="none" stroke="black" d="M171.95,-154.66C170.39,-164.62 172.73,-174 178.98,-174 182.99,-174 185.39,-170.15 186.18,-164.77"/>
<polygon fill="black" stroke="black" points="189.68,-164.6 186.01,-154.66 182.68,-164.72 189.68,-164.6"/>
<text text-anchor="middle" x="178.98" y="-178.2" font-family="Times,serif" font-size="14.00"> a</text>
</g>
<!-- 3 -->
<g id="node6" class="node">
<title>3</title>
<ellipse fill="none" stroke="black" cx="265.48" cy="-142" rx="18" ry="18"/>
<ellipse fill="none" stroke="black" cx="265.48" cy="-142" rx="22" ry="22"/>
<text text-anchor="middle" x="265.48" y="-137.8" font-family="Times,serif" font-size="14.00">3</text>
</g>
<!-- 2&#45;&gt;3 -->
<g id="edge6" class="edge">
<title>2&#45;&gt;3</title>
<path fill="none" stroke="black" d="M197.08,-138.81C207.38,-139.3 220.8,-139.93 232.96,-140.51"/>
<polygon fill="black" stroke="black" points="233.05,-144.02 243.21,-140.99 233.38,-137.02 233.05,-144.02"/>
<text text-anchor="middle" x="220.23" y="-144.2" font-family="Times,serif" font-size="14.00"> b</text>
</g>
<!-- 5 -->
<g id="node8" class="node">
<title>5</title>
<ellipse fill="none" stroke="black" cx="265.48" cy="-80" rx="18" ry="18"/>
<ellipse fill="none" stroke="black" cx="265.48" cy="-80" rx="22" ry="22"/>
<text text-anchor="middle" x="265.48" y="-75.8" font-family="Times,serif" font-size="14.00">5</text>
</g>
<!-- 4&#45;&gt;5 -->
<g id="edge7" class="edge">
<title>4&#45;&gt;5</title>
<path fill="none" stroke="black" d="M197.08,-80C207.38,-80 220.8,-80 232.96,-80"/>
<polygon fill="black" stroke="black" points="233.21,-83.5 243.21,-80 233.21,-76.5 233.21,-83.5"/>
<text text-anchor="middle" x="220.23" y="-84.2" font-family="Times,serif" font-size="14.00"> a</text>
</g>
<!-- 7 -->
<g id="node10" class="node">
<title>7</title>
<ellipse fill="none" stroke="black" cx="265.48" cy="-22" rx="18" ry="18"/>
<text text-anchor="middle" x="265.48" y="-17.8" font-family="Times,serif" font-size="14.00">7</text>
</g>
<!-- 6&#45;&gt;7 -->
<g id="edge8" class="edge">
<title>6&#45;&gt;7</title>
<path fill="none" stroke="black" d="M197.08,-24.39C208.65,-23.98 224.17,-23.43 237.41,-22.96"/>
<polygon fill="black" stroke="black" points="237.54,-26.46 247.41,-22.61 237.29,-19.46 237.54,-26.46"/>
<text text-anchor="middle" x="220.23" y="-28.2" font-family="Times,serif" font-size="14.00"> a</text>
</g>
<!-- 3&#45;&gt;3 -->
<g id="edge10" class="edge">
<title>3&#45;&gt;3</title>
<path fill="none" stroke="black" d="M257.48,-162.58C256.37,-172.84 259.04,-182 265.48,-182 269.61,-182 272.19,-178.24 273.22,-172.84"/>
<polygon fill="black" stroke="black" points="276.73,-172.67 273.49,-162.58 269.73,-172.49 276.73,-172.67"/>
<text text-anchor="middle" x="265.48" y="-186.2" font-family="Times,serif" font-size="14.00"> b</text>
</g>
<!-- 3 accepting rules -->
<g id="node7" class="node">
<title>3 accepting rules</title>
<polygon fill="none" stroke="blue" points="387.98,-160 333.98,-160 333.98,-124 387.98,-124 387.98,-160"/>
<text text-anchor="middle" x="360.98" y="-137.8" font-family="Times,serif" font-size="14.00">a*b+</text>
</g>
<!-- 3&#45;&gt;3 accepting rules -->
<g id="edge9" class="edge">
<title>3&#45;&gt;3 accepting rules</title>
<path fill="none" stroke="blue" stroke-dasharray="5,2" d="M287.7,-142C301.38,-142 319.28,-142 333.84,-142"/>
</g>
<!-- 5 accepting rules -->
<g id="node9" class="node">
<title>5 accepting rules</title>
<polygon fill="none" stroke="blue" points="387.98,-98 333.98,-98 333.98,-62 387.98,-62 387.98,-98"/>
<text text-anchor="middle" x="360.98" y="-75.8" font-family="Times,serif" font-size="14.00">a</text>
</g>
<!-- 5&#45;&gt;5 accepting rules -->
<g id="edge11" class="edge">
<title>5&#45;&gt;5 accepting rules</title>
<path fill="none" stroke="blue" stroke-dasharray="5,2" d="M287.7,-80C301.38,-80 319.28,-80 333.84,-80"/>
</g>
<!-- 8 -->
<g id="node11" class="node">
<title>8</title>
<ellipse fill="none" stroke="black" cx="360.98" cy="-22" rx="18" ry="18"/>
<text text-anchor="middle" x="360.98" y="-17.8" font-family="Times,serif" font-size="14.00">8</text>
</g>
<!-- 7&#45;&gt;8 -->
<g id="edge12" class="edge">
<title>7&#45;&gt;8</title>
<path fill="none" stroke="black" d="M283.63,-22C297.34,-22 316.81,-22 332.66,-22"/>
<polygon fill="black" stroke="black" points="332.94,-25.5 342.94,-22 332.94,-18.5 332.94,-25.5"/>
<text text-anchor="middle" x="310.73" y="-26.2" font-family="Times,serif" font-size="14.00"> b</text>
</g>
<!-- 9 -->
<g id="node12" class="node">
<title>9</title>
<ellipse fill="none" stroke="black" cx="456.48" cy="-22" rx="18" ry="18"/>
<ellipse fill="none" stroke="black" cx="456.48" cy="-22" rx="22" ry="22"/>
<text text-anchor="middle" x="456.48" y="-17.8" font-family="Times,serif" font-size="14.00">9</text>
</g>
<!-- 8&#45;&gt;9 -->
<g id="edge13" class="edge">
<title>8&#45;&gt;9</title>
<path fill="none" stroke="black" d="M379.13,-22C391.6,-22 408.85,-22 423.8,-22"/>
<polygon fill="black" stroke="black" points="424.17,-25.5 434.17,-22 424.17,-18.5 424.17,-25.5"/>
<text text-anchor="middle" x="411.23" y="-26.2" font-family="Times,serif" font-size="14.00"> b</text>
</g>
<!-- 9 accepting rules -->
<g id="node13" class="node">
<title>9 accepting rules</title>
<polygon fill="none" stroke="blue" points="569.48,-40 515.48,-40 515.48,-4 569.48,-4 569.48,-40"/>
<text text-anchor="middle" x="542.48" y="-17.8" font-family="Times,serif" font-size="14.00">abb</text>
</g>
<!-- 9&#45;&gt;9 accepting rules -->
<g id="edge14" class="edge">
<title>9&#45;&gt;9 accepting rules</title>
<path fill="none" stroke="blue" stroke-dasharray="5,2" d="M478.68,-22C489.76,-22 503.43,-22 515.18,-22"/>
</g>
</g>
</svg>
