<svg width="476px" height="1052px"
 viewBox="0.00 0.00 476.00 1052.00" xmlns="http://www.w3.org/2000/svg" xmlns:xlink="http://www.w3.org/1999/xlink">
<g id="graph0" class="graph" transform="scale(1.0 1.0) rotate(0) translate(4 1048)">
<title>AM</title>
<polygon fill="white" stroke="transparent" points="-4,4 -4,-1048 472,-1048 472,4 -4,4"/>
<!-- AL -->
<g id="node1" class="node">
<title>AL</title>
<ellipse fill="none" stroke="black" cx="321" cy="-1026" rx="27" ry="18"/>
<text text-anchor="middle" x="321" y="-1021.8" font-family="Times,serif" font-size="14.00">_S</text>
</g>
<!-- AK -->
<g id="node2" class="node">
<title>AK</title>
<ellipse fill="none" stroke="black" cx="321" cy="-954" rx="27" ry="18"/>
<text text-anchor="middle" x="321" y="-949.8" font-family="Times,serif" font-size="14.00">E</text>
</g>
<!-- AL&#45;&gt;AK -->
<g id="edge1" class="edge">
<title>AL&#45;&gt;AK</title>
<path fill="none" stroke="black" d="M321,-1007.7C321,-999.98 321,-990.71 321,-982.11"/>
<polygon fill="black" stroke="black" points="324.5,-982.1 321,-972.1 317.5,-982.1 324.5,-982.1"/>
</g>
<!-- AF -->
<g id="node3" class="node">
<title>AF</title>
<ellipse fill="none" stroke="black" cx="222" cy="-882" rx="27" ry="18"/>
<text text-anchor="middle" x="222" y="-877.8" font-family="Times,serif" font-size="14.00">E</text>
</g>
<!-- AK&#45;&gt;AF -->
<g id="edge2" class="edge">
<title>AK&#45;&gt;AF</title>
<path fill="none" stroke="black" d="M302.84,-940.16C287.63,-929.41 265.71,-913.91 248.53,-901.76"/>
<polygon fill="black" stroke="black" points="250.23,-898.67 240.04,-895.76 246.19,-904.39 250.23,-898.67"/>
</g>
<!-- AG -->
<g id="node4" class="node">
<title>AG</title>
<ellipse fill="none" stroke="black" cx="321" cy="-882" rx="27" ry="18"/>
<text text-anchor="middle" x="321" y="-877.8" font-family="Times,serif" font-size="14.00">+</text>
</g>
<!-- AK&#45;&gt;AG -->
<g id="edge3" class="edge">
<title>AK&#45;&gt;AG</title>
<path fill="none" stroke="black" d="M321,-935.7C321,-927.98 321,-918.71 321,-910.11"/>
<polygon fill="black" stroke="black" points="324.5,-910.1 321,-900.1 317.5,-910.1 324.5,-910.1"/>
</g>
<!-- AJ -->
<g id="node5" class="node">
<title>AJ</title>
<ellipse fill="none" stroke="black" cx="400" cy="-882" rx="27" ry="18"/>
<text text-anchor="middle" x="400" y="-877.8" font-family="Times,serif" font-size="14.00">T</text>
</g>
<!-- AK&#45;&gt;AJ -->
<g id="edge4" class="edge">
<title>AK&#45;&gt;AJ</title>
<path fill="none" stroke="black" d="M336.61,-939.17C348.08,-929.01 363.85,-915.03 376.79,-903.56"/>
<polygon fill="black" stroke="black" points="379.26,-906.05 384.42,-896.8 374.62,-900.81 379.26,-906.05"/>
</g>
<!-- AE -->
<g id="node6" class="node">
<title>AE</title>
<ellipse fill="none" stroke="black" cx="168" cy="-810" rx="27" ry="18"/>
<text text-anchor="middle" x="168" y="-805.8" font-family="Times,serif" font-size="14.00">T</text>
</g>
<!-- AF&#45;&gt;AE -->
<g id="edge5" class="edge">
<title>AF&#45;&gt;AE</title>
<path fill="none" stroke="black" d="M210.02,-865.46C203.02,-856.4 194.06,-844.79 186.21,-834.61"/>
<polygon fill="black" stroke="black" points="188.83,-832.27 179.95,-826.49 183.29,-836.55 188.83,-832.27"/>
</g>
<!-- AG+ -->
<g id="node7" class="node">
<title>AG+</title>
<polygon fill="none" stroke="blue" points="348,-828 294,-828 294,-792 348,-792 348,-828"/>
<text text-anchor="middle" x="321" y="-805.8" font-family="Times,serif" font-size="14.00">+</text>
</g>
<!-- AG&#45;&gt;AG+ -->
<g id="edge6" class="edge">
<title>AG&#45;&gt;AG+</title>
<path fill="none" stroke="blue" stroke-dasharray="5,2" d="M321,-863.7C321,-852.85 321,-838.92 321,-828.1"/>
</g>
<!-- AI -->
<g id="node8" class="node">
<title>AI</title>
<ellipse fill="none" stroke="black" cx="406" cy="-810" rx="27" ry="18"/>
<text text-anchor="middle" x="406" y="-805.8" font-family="Times,serif" font-size="14.00">F</text>
</g>
<!-- AJ&#45;&gt;AI -->
<g id="edge7" class="edge">
<title>AJ&#45;&gt;AI</title>
<path fill="none" stroke="black" d="M401.48,-863.7C402.14,-855.98 402.94,-846.71 403.68,-838.11"/>
<polygon fill="black" stroke="black" points="407.17,-838.37 404.53,-828.1 400.19,-837.77 407.17,-838.37"/>
</g>
<!-- C -->
<g id="node9" class="node">
<title>C</title>
<ellipse fill="none" stroke="black" cx="71" cy="-738" rx="27" ry="18"/>
<text text-anchor="middle" x="71" y="-733.8" font-family="Times,serif" font-size="14.00">T</text>
</g>
<!-- AE&#45;&gt;C -->
<g id="edge8" class="edge">
<title>AE&#45;&gt;C</title>
<path fill="none" stroke="black" d="M150.21,-796.16C135.3,-785.41 113.83,-769.91 97,-757.76"/>
<polygon fill="black" stroke="black" points="98.84,-754.77 88.68,-751.76 94.74,-760.45 98.84,-754.77"/>
</g>
<!-- D -->
<g id="node10" class="node">
<title>D</title>
<ellipse fill="none" stroke="black" cx="161" cy="-738" rx="27" ry="18"/>
<text text-anchor="middle" x="161" y="-733.8" font-family="Times,serif" font-size="14.00">*</text>
</g>
<!-- AE&#45;&gt;D -->
<g id="edge9" class="edge">
<title>AE&#45;&gt;D</title>
<path fill="none" stroke="black" d="M166.27,-791.7C165.5,-783.98 164.57,-774.71 163.71,-766.11"/>
<polygon fill="black" stroke="black" points="167.19,-765.71 162.71,-756.1 160.22,-766.4 167.19,-765.71"/>
</g>
<!-- AD -->
<g id="node11" class="node">
<title>AD</title>
<ellipse fill="none" stroke="black" cx="269" cy="-738" rx="27" ry="18"/>
<text text-anchor="middle" x="269" y="-733.8" font-family="Times,serif" font-size="14.00">F</text>
</g>
<!-- AE&#45;&gt;AD -->
<g id="edge10" class="edge">
<title>AE&#45;&gt;AD</title>
<path fill="none" stroke="black" d="M186.06,-796.49C201.76,-785.6 224.72,-769.69 242.5,-757.37"/>
<polygon fill="black" stroke="black" points="244.53,-760.22 250.76,-751.64 240.55,-754.46 244.53,-760.22"/>
</g>
<!-- AH -->
<g id="node12" class="node">
<title>AH</title>
<ellipse fill="none" stroke="black" cx="413" cy="-738" rx="28.41" ry="18"/>
<text text-anchor="middle" x="413" y="-733.8" font-family="Times,serif" font-size="14.00">num</text>
</g>
<!-- AI&#45;&gt;AH -->
<g id="edge11" class="edge">
<title>AI&#45;&gt;AH</title>
<path fill="none" stroke="black" d="M407.73,-791.7C408.5,-783.98 409.43,-774.71 410.29,-766.11"/>
<polygon fill="black" stroke="black" points="413.78,-766.4 411.29,-756.1 406.81,-765.71 413.78,-766.4"/>
</g>
<!-- B -->
<g id="node13" class="node">
<title>B</title>
<ellipse fill="none" stroke="black" cx="62" cy="-666" rx="27" ry="18"/>
<text text-anchor="middle" x="62" y="-661.8" font-family="Times,serif" font-size="14.00">F</text>
</g>
<!-- C&#45;&gt;B -->
<g id="edge12" class="edge">
<title>C&#45;&gt;B</title>
<path fill="none" stroke="black" d="M68.82,-720.05C67.83,-712.35 66.63,-703.03 65.52,-694.36"/>
<polygon fill="black" stroke="black" points="68.97,-693.75 64.22,-684.28 62.02,-694.64 68.97,-693.75"/>
</g>
<!-- D* -->
<g id="node14" class="node">
<title>D*</title>
<polygon fill="none" stroke="blue" points="170,-684 116,-684 116,-648 170,-648 170,-684"/>
<text text-anchor="middle" x="143" y="-661.8" font-family="Times,serif" font-size="14.00">*</text>
</g>
<!-- D&#45;&gt;D* -->
<g id="edge13" class="edge">
<title>D&#45;&gt;D*</title>
<path fill="none" stroke="blue" stroke-dasharray="5,2" d="M156.64,-720.05C153.85,-709.21 150.25,-695.18 147.44,-684.28"/>
</g>
<!-- E -->
<g id="node15" class="node">
<title>E</title>
<ellipse fill="none" stroke="black" cx="215" cy="-666" rx="27" ry="18"/>
<text text-anchor="middle" x="215" y="-661.8" font-family="Times,serif" font-size="14.00">(</text>
</g>
<!-- AD&#45;&gt;E -->
<g id="edge14" class="edge">
<title>AD&#45;&gt;E</title>
<path fill="none" stroke="black" d="M257.02,-721.46C250.02,-712.4 241.06,-700.79 233.21,-690.61"/>
<polygon fill="black" stroke="black" points="235.83,-688.27 226.95,-682.49 230.29,-692.55 235.83,-688.27"/>
</g>
<!-- AB -->
<g id="node16" class="node">
<title>AB</title>
<ellipse fill="none" stroke="black" cx="287" cy="-666" rx="27" ry="18"/>
<text text-anchor="middle" x="287" y="-661.8" font-family="Times,serif" font-size="14.00">E</text>
</g>
<!-- AD&#45;&gt;AB -->
<g id="edge15" class="edge">
<title>AD&#45;&gt;AB</title>
<path fill="none" stroke="black" d="M273.36,-720.05C275.39,-712.14 277.86,-702.54 280.14,-693.69"/>
<polygon fill="black" stroke="black" points="283.58,-694.35 282.68,-683.79 276.8,-692.6 283.58,-694.35"/>
</g>
<!-- AC -->
<g id="node17" class="node">
<title>AC</title>
<ellipse fill="none" stroke="black" cx="359" cy="-666" rx="27" ry="18"/>
<text text-anchor="middle" x="359" y="-661.8" font-family="Times,serif" font-size="14.00">)</text>
</g>
<!-- AD&#45;&gt;AC -->
<g id="edge16" class="edge">
<title>AD&#45;&gt;AC</title>
<path fill="none" stroke="black" d="M285.93,-723.83C299.5,-713.27 318.76,-698.3 334.09,-686.37"/>
<polygon fill="black" stroke="black" points="336.4,-689.01 342.15,-680.11 332.11,-683.48 336.4,-689.01"/>
</g>
<!-- AH8 -->
<g id="node18" class="node">
<title>AH8</title>
<polygon fill="none" stroke="blue" points="458,-684 404,-684 404,-648 458,-648 458,-684"/>
<text text-anchor="middle" x="431" y="-661.8" font-family="Times,serif" font-size="14.00">8</text>
</g>
<!-- AH&#45;&gt;AH8 -->
<g id="edge17" class="edge">
<title>AH&#45;&gt;AH8</title>
<path fill="none" stroke="blue" stroke-dasharray="5,2" d="M417.36,-720.05C420.15,-709.21 423.75,-695.18 426.56,-684.28"/>
</g>
<!-- A -->
<g id="node19" class="node">
<title>A</title>
<ellipse fill="none" stroke="black" cx="62" cy="-594" rx="28.41" ry="18"/>
<text text-anchor="middle" x="62" y="-589.8" font-family="Times,serif" font-size="14.00">num</text>
</g>
<!-- B&#45;&gt;A -->
<g id="edge18" class="edge">
<title>B&#45;&gt;A</title>
<path fill="none" stroke="black" d="M62,-647.7C62,-639.98 62,-630.71 62,-622.11"/>
<polygon fill="black" stroke="black" points="65.5,-622.1 62,-612.1 58.5,-622.1 65.5,-622.1"/>
</g>
<!-- E( -->
<g id="node20" class="node">
<title>E(</title>
<polygon fill="none" stroke="blue" points="180,-612 126,-612 126,-576 180,-576 180,-612"/>
<text text-anchor="middle" x="153" y="-589.8" font-family="Times,serif" font-size="14.00">(</text>
</g>
<!-- E&#45;&gt;E( -->
<g id="edge19" class="edge">
<title>E&#45;&gt;E(</title>
<path fill="none" stroke="blue" stroke-dasharray="5,2" d="M201.85,-650.15C191.97,-639 178.42,-623.7 168.09,-612.04"/>
</g>
<!-- W -->
<g id="node21" class="node">
<title>W</title>
<ellipse fill="none" stroke="black" cx="225" cy="-594" rx="27" ry="18"/>
<text text-anchor="middle" x="225" y="-589.8" font-family="Times,serif" font-size="14.00">E</text>
</g>
<!-- AB&#45;&gt;W -->
<g id="edge20" class="edge">
<title>AB&#45;&gt;W</title>
<path fill="none" stroke="black" d="M273.85,-650.15C265.47,-640.69 254.44,-628.24 244.98,-617.56"/>
<polygon fill="black" stroke="black" points="247.38,-614.99 238.13,-609.82 242.14,-619.63 247.38,-614.99"/>
</g>
<!-- X -->
<g id="node22" class="node">
<title>X</title>
<ellipse fill="none" stroke="black" cx="297" cy="-594" rx="27" ry="18"/>
<text text-anchor="middle" x="297" y="-589.8" font-family="Times,serif" font-size="14.00">&#45;</text>
</g>
<!-- AB&#45;&gt;X -->
<g id="edge21" class="edge">
<title>AB&#45;&gt;X</title>
<path fill="none" stroke="black" d="M289.42,-648.05C290.52,-640.35 291.85,-631.03 293.09,-622.36"/>
<polygon fill="black" stroke="black" points="296.58,-622.67 294.53,-612.28 289.65,-621.68 296.58,-622.67"/>
</g>
<!-- AA -->
<g id="node23" class="node">
<title>AA</title>
<ellipse fill="none" stroke="black" cx="369" cy="-594" rx="27" ry="18"/>
<text text-anchor="middle" x="369" y="-589.8" font-family="Times,serif" font-size="14.00">T</text>
</g>
<!-- AB&#45;&gt;AA -->
<g id="edge22" class="edge">
<title>AB&#45;&gt;AA</title>
<path fill="none" stroke="black" d="M303.2,-651.17C315.18,-640.94 331.69,-626.85 345.18,-615.34"/>
<polygon fill="black" stroke="black" points="347.78,-617.72 353.11,-608.56 343.23,-612.39 347.78,-617.72"/>
</g>
<!-- AC) -->
<g id="node24" class="node">
<title>AC)</title>
<polygon fill="none" stroke="blue" points="468,-612 414,-612 414,-576 468,-576 468,-612"/>
<text text-anchor="middle" x="441" y="-589.8" font-family="Times,serif" font-size="14.00">)</text>
</g>
<!-- AC&#45;&gt;AC) -->
<g id="edge23" class="edge">
<title>AC&#45;&gt;AC)</title>
<path fill="none" stroke="blue" stroke-dasharray="5,2" d="M375.2,-651.17C388.36,-639.93 406.99,-624.04 421.06,-612.02"/>
</g>
<!-- A3 -->
<g id="node25" class="node">
<title>A3</title>
<polygon fill="none" stroke="blue" points="54,-540 0,-540 0,-504 54,-504 54,-540"/>
<text text-anchor="middle" x="27" y="-517.8" font-family="Times,serif" font-size="14.00">3</text>
</g>
<!-- A&#45;&gt;A3 -->
<g id="edge24" class="edge">
<title>A&#45;&gt;A3</title>
<path fill="none" stroke="blue" stroke-dasharray="5,2" d="M53.71,-576.41C48.29,-565.58 41.22,-551.45 35.72,-540.45"/>
</g>
<!-- I -->
<g id="node26" class="node">
<title>I</title>
<ellipse fill="none" stroke="black" cx="99" cy="-522" rx="27" ry="18"/>
<text text-anchor="middle" x="99" y="-517.8" font-family="Times,serif" font-size="14.00">E</text>
</g>
<!-- W&#45;&gt;I -->
<g id="edge25" class="edge">
<title>W&#45;&gt;I</title>
<path fill="none" stroke="black" d="M204.76,-581.75C184,-570.22 151.52,-552.18 128.02,-539.12"/>
<polygon fill="black" stroke="black" points="129.64,-536.02 119.19,-534.22 126.24,-542.13 129.64,-536.02"/>
</g>
<!-- J -->
<g id="node27" class="node">
<title>J</title>
<ellipse fill="none" stroke="black" cx="171" cy="-522" rx="27" ry="18"/>
<text text-anchor="middle" x="171" y="-517.8" font-family="Times,serif" font-size="14.00">+</text>
</g>
<!-- W&#45;&gt;J -->
<g id="edge26" class="edge">
<title>W&#45;&gt;J</title>
<path fill="none" stroke="black" d="M213.02,-577.46C206.02,-568.4 197.06,-556.79 189.21,-546.61"/>
<polygon fill="black" stroke="black" points="191.83,-544.27 182.95,-538.49 186.29,-548.55 191.83,-544.27"/>
</g>
<!-- V -->
<g id="node28" class="node">
<title>V</title>
<ellipse fill="none" stroke="black" cx="243" cy="-522" rx="27" ry="18"/>
<text text-anchor="middle" x="243" y="-517.8" font-family="Times,serif" font-size="14.00">T</text>
</g>
<!-- W&#45;&gt;V -->
<g id="edge27" class="edge">
<title>W&#45;&gt;V</title>
<path fill="none" stroke="black" d="M229.36,-576.05C231.39,-568.14 233.86,-558.54 236.14,-549.69"/>
<polygon fill="black" stroke="black" points="239.58,-550.35 238.68,-539.79 232.8,-548.6 239.58,-550.35"/>
</g>
<!-- X&#45; -->
<g id="node29" class="node">
<title>X&#45;</title>
<polygon fill="none" stroke="blue" points="342,-540 288,-540 288,-504 342,-504 342,-540"/>
<text text-anchor="middle" x="315" y="-517.8" font-family="Times,serif" font-size="14.00">&#45;</text>
</g>
<!-- X&#45;&gt;X&#45; -->
<g id="edge28" class="edge">
<title>X&#45;&gt;X&#45;</title>
<path fill="none" stroke="blue" stroke-dasharray="5,2" d="M301.36,-576.05C304.15,-565.21 307.75,-551.18 310.56,-540.28"/>
</g>
<!-- Z -->
<g id="node30" class="node">
<title>Z</title>
<ellipse fill="none" stroke="black" cx="387" cy="-522" rx="27" ry="18"/>
<text text-anchor="middle" x="387" y="-517.8" font-family="Times,serif" font-size="14.00">F</text>
</g>
<!-- AA&#45;&gt;Z -->
<g id="edge29" class="edge">
<title>AA&#45;&gt;Z</title>
<path fill="none" stroke="black" d="M373.36,-576.05C375.39,-568.14 377.86,-558.54 380.14,-549.69"/>
<polygon fill="black" stroke="black" points="383.58,-550.35 382.68,-539.79 376.8,-548.6 383.58,-550.35"/>
</g>
<!-- H -->
<g id="node31" class="node">
<title>H</title>
<ellipse fill="none" stroke="black" cx="98" cy="-450" rx="27" ry="18"/>
<text text-anchor="middle" x="98" y="-445.8" font-family="Times,serif" font-size="14.00">T</text>
</g>
<!-- I&#45;&gt;H -->
<g id="edge30" class="edge">
<title>I&#45;&gt;H</title>
<path fill="none" stroke="black" d="M98.75,-503.7C98.64,-495.98 98.51,-486.71 98.39,-478.11"/>
<polygon fill="black" stroke="black" points="101.89,-478.05 98.24,-468.1 94.89,-478.15 101.89,-478.05"/>
</g>
<!-- J+ -->
<g id="node32" class="node">
<title>J+</title>
<polygon fill="none" stroke="blue" points="198,-468 144,-468 144,-432 198,-432 198,-468"/>
<text text-anchor="middle" x="171" y="-445.8" font-family="Times,serif" font-size="14.00">+</text>
</g>
<!-- J&#45;&gt;J+ -->
<g id="edge31" class="edge">
<title>J&#45;&gt;J+</title>
<path fill="none" stroke="blue" stroke-dasharray="5,2" d="M171,-503.7C171,-492.85 171,-478.92 171,-468.1"/>
</g>
<!-- U -->
<g id="node33" class="node">
<title>U</title>
<ellipse fill="none" stroke="black" cx="243" cy="-450" rx="27" ry="18"/>
<text text-anchor="middle" x="243" y="-445.8" font-family="Times,serif" font-size="14.00">F</text>
</g>
<!-- V&#45;&gt;U -->
<g id="edge32" class="edge">
<title>V&#45;&gt;U</title>
<path fill="none" stroke="black" d="M243,-503.7C243,-495.98 243,-486.71 243,-478.11"/>
<polygon fill="black" stroke="black" points="246.5,-478.1 243,-468.1 239.5,-478.1 246.5,-478.1"/>
</g>
<!-- Y -->
<g id="node34" class="node">
<title>Y</title>
<ellipse fill="none" stroke="black" cx="387" cy="-450" rx="28.41" ry="18"/>
<text text-anchor="middle" x="387" y="-445.8" font-family="Times,serif" font-size="14.00">num</text>
</g>
<!-- Z&#45;&gt;Y -->
<g id="edge33" class="edge">
<title>Z&#45;&gt;Y</title>
<path fill="none" stroke="black" d="M387,-503.7C387,-495.98 387,-486.71 387,-478.11"/>
<polygon fill="black" stroke="black" points="390.5,-478.1 387,-468.1 383.5,-478.1 390.5,-478.1"/>
</g>
<!-- G -->
<g id="node35" class="node">
<title>G</title>
<ellipse fill="none" stroke="black" cx="98" cy="-378" rx="27" ry="18"/>
<text text-anchor="middle" x="98" y="-373.8" font-family="Times,serif" font-size="14.00">F</text>
</g>
<!-- H&#45;&gt;G -->
<g id="edge34" class="edge">
<title>H&#45;&gt;G</title>
<path fill="none" stroke="black" d="M98,-431.7C98,-423.98 98,-414.71 98,-406.11"/>
<polygon fill="black" stroke="black" points="101.5,-406.1 98,-396.1 94.5,-406.1 101.5,-406.1"/>
</g>
<!-- K -->
<g id="node36" class="node">
<title>K</title>
<ellipse fill="none" stroke="black" cx="171" cy="-378" rx="27" ry="18"/>
<text text-anchor="middle" x="171" y="-373.8" font-family="Times,serif" font-size="14.00">(</text>
</g>
<!-- U&#45;&gt;K -->
<g id="edge35" class="edge">
<title>U&#45;&gt;K</title>
<path fill="none" stroke="black" d="M228.43,-434.83C218.25,-424.94 204.48,-411.55 192.97,-400.36"/>
<polygon fill="black" stroke="black" points="195.41,-397.85 185.8,-393.38 190.53,-402.87 195.41,-397.85"/>
</g>
<!-- S -->
<g id="node37" class="node">
<title>S</title>
<ellipse fill="none" stroke="black" cx="243" cy="-378" rx="27" ry="18"/>
<text text-anchor="middle" x="243" y="-373.8" font-family="Times,serif" font-size="14.00">E</text>
</g>
<!-- U&#45;&gt;S -->
<g id="edge36" class="edge">
<title>U&#45;&gt;S</title>
<path fill="none" stroke="black" d="M243,-431.7C243,-423.98 243,-414.71 243,-406.11"/>
<polygon fill="black" stroke="black" points="246.5,-406.1 243,-396.1 239.5,-406.1 246.5,-406.1"/>
</g>
<!-- T -->
<g id="node38" class="node">
<title>T</title>
<ellipse fill="none" stroke="black" cx="315" cy="-378" rx="27" ry="18"/>
<text text-anchor="middle" x="315" y="-373.8" font-family="Times,serif" font-size="14.00">)</text>
</g>
<!-- U&#45;&gt;T -->
<g id="edge37" class="edge">
<title>U&#45;&gt;T</title>
<path fill="none" stroke="black" d="M257.57,-434.83C267.75,-424.94 281.52,-411.55 293.03,-400.36"/>
<polygon fill="black" stroke="black" points="295.47,-402.87 300.2,-393.38 290.59,-397.85 295.47,-402.87"/>
</g>
<!-- Y5 -->
<g id="node39" class="node">
<title>Y5</title>
<polygon fill="none" stroke="blue" points="414,-396 360,-396 360,-360 414,-360 414,-396"/>
<text text-anchor="middle" x="387" y="-373.8" font-family="Times,serif" font-size="14.00">5</text>
</g>
<!-- Y&#45;&gt;Y5 -->
<g id="edge38" class="edge">
<title>Y&#45;&gt;Y5</title>
<path fill="none" stroke="blue" stroke-dasharray="5,2" d="M387,-431.7C387,-420.85 387,-406.92 387,-396.1"/>
</g>
<!-- F -->
<g id="node40" class="node">
<title>F</title>
<ellipse fill="none" stroke="black" cx="98" cy="-306" rx="28.41" ry="18"/>
<text text-anchor="middle" x="98" y="-301.8" font-family="Times,serif" font-size="14.00">num</text>
</g>
<!-- G&#45;&gt;F -->
<g id="edge39" class="edge">
<title>G&#45;&gt;F</title>
<path fill="none" stroke="black" d="M98,-359.7C98,-351.98 98,-342.71 98,-334.11"/>
<polygon fill="black" stroke="black" points="101.5,-334.1 98,-324.1 94.5,-334.1 101.5,-334.1"/>
</g>
<!-- K( -->
<g id="node41" class="node">
<title>K(</title>
<polygon fill="none" stroke="blue" points="198,-324 144,-324 144,-288 198,-288 198,-324"/>
<text text-anchor="middle" x="171" y="-301.8" font-family="Times,serif" font-size="14.00">(</text>
</g>
<!-- K&#45;&gt;K( -->
<g id="edge40" class="edge">
<title>K&#45;&gt;K(</title>
<path fill="none" stroke="blue" stroke-dasharray="5,2" d="M171,-359.7C171,-348.85 171,-334.92 171,-324.1"/>
</g>
<!-- R -->
<g id="node42" class="node">
<title>R</title>
<ellipse fill="none" stroke="black" cx="243" cy="-306" rx="27" ry="18"/>
<text text-anchor="middle" x="243" y="-301.8" font-family="Times,serif" font-size="14.00">T</text>
</g>
<!-- S&#45;&gt;R -->
<g id="edge41" class="edge">
<title>S&#45;&gt;R</title>
<path fill="none" stroke="black" d="M243,-359.7C243,-351.98 243,-342.71 243,-334.11"/>
<polygon fill="black" stroke="black" points="246.5,-334.1 243,-324.1 239.5,-334.1 246.5,-334.1"/>
</g>
<!-- T) -->
<g id="node43" class="node">
<title>T)</title>
<polygon fill="none" stroke="blue" points="342,-324 288,-324 288,-288 342,-288 342,-324"/>
<text text-anchor="middle" x="315" y="-301.8" font-family="Times,serif" font-size="14.00">)</text>
</g>
<!-- T&#45;&gt;T) -->
<g id="edge42" class="edge">
<title>T&#45;&gt;T)</title>
<path fill="none" stroke="blue" stroke-dasharray="5,2" d="M315,-359.7C315,-348.85 315,-334.92 315,-324.1"/>
</g>
<!-- F6 -->
<g id="node44" class="node">
<title>F6</title>
<polygon fill="none" stroke="blue" points="125,-252 71,-252 71,-216 125,-216 125,-252"/>
<text text-anchor="middle" x="98" y="-229.8" font-family="Times,serif" font-size="14.00">6</text>
</g>
<!-- F&#45;&gt;F6 -->
<g id="edge43" class="edge">
<title>F&#45;&gt;F6</title>
<path fill="none" stroke="blue" stroke-dasharray="5,2" d="M98,-287.7C98,-276.85 98,-262.92 98,-252.1"/>
</g>
<!-- N -->
<g id="node45" class="node">
<title>N</title>
<ellipse fill="none" stroke="black" cx="171" cy="-234" rx="27" ry="18"/>
<text text-anchor="middle" x="171" y="-229.8" font-family="Times,serif" font-size="14.00">T</text>
</g>
<!-- R&#45;&gt;N -->
<g id="edge44" class="edge">
<title>R&#45;&gt;N</title>
<path fill="none" stroke="black" d="M228.43,-290.83C218.25,-280.94 204.48,-267.55 192.97,-256.36"/>
<polygon fill="black" stroke="black" points="195.41,-253.85 185.8,-249.38 190.53,-258.87 195.41,-253.85"/>
</g>
<!-- O -->
<g id="node46" class="node">
<title>O</title>
<ellipse fill="none" stroke="black" cx="243" cy="-234" rx="27" ry="18"/>
<text text-anchor="middle" x="243" y="-229.8" font-family="Times,serif" font-size="14.00">/</text>
</g>
<!-- R&#45;&gt;O -->
<g id="edge45" class="edge">
<title>R&#45;&gt;O</title>
<path fill="none" stroke="black" d="M243,-287.7C243,-279.98 243,-270.71 243,-262.11"/>
<polygon fill="black" stroke="black" points="246.5,-262.1 243,-252.1 239.5,-262.1 246.5,-262.1"/>
</g>
<!-- Q -->
<g id="node47" class="node">
<title>Q</title>
<ellipse fill="none" stroke="black" cx="316" cy="-234" rx="27" ry="18"/>
<text text-anchor="middle" x="316" y="-229.8" font-family="Times,serif" font-size="14.00">F</text>
</g>
<!-- R&#45;&gt;Q -->
<g id="edge46" class="edge">
<title>R&#45;&gt;Q</title>
<path fill="none" stroke="black" d="M257.77,-290.83C268.16,-280.87 282.24,-267.37 293.96,-256.14"/>
<polygon fill="black" stroke="black" points="296.45,-258.59 301.25,-249.14 291.61,-253.54 296.45,-258.59"/>
</g>
<!-- M -->
<g id="node48" class="node">
<title>M</title>
<ellipse fill="none" stroke="black" cx="171" cy="-162" rx="27" ry="18"/>
<text text-anchor="middle" x="171" y="-157.8" font-family="Times,serif" font-size="14.00">F</text>
</g>
<!-- N&#45;&gt;M -->
<g id="edge47" class="edge">
<title>N&#45;&gt;M</title>
<path fill="none" stroke="black" d="M171,-215.7C171,-207.98 171,-198.71 171,-190.11"/>
<polygon fill="black" stroke="black" points="174.5,-190.1 171,-180.1 167.5,-190.1 174.5,-190.1"/>
</g>
<!-- O/ -->
<g id="node49" class="node">
<title>O/</title>
<polygon fill="none" stroke="blue" points="270,-180 216,-180 216,-144 270,-144 270,-180"/>
<text text-anchor="middle" x="243" y="-157.8" font-family="Times,serif" font-size="14.00">/</text>
</g>
<!-- O&#45;&gt;O/ -->
<g id="edge48" class="edge">
<title>O&#45;&gt;O/</title>
<path fill="none" stroke="blue" stroke-dasharray="5,2" d="M243,-215.7C243,-204.85 243,-190.92 243,-180.1"/>
</g>
<!-- P -->
<g id="node50" class="node">
<title>P</title>
<ellipse fill="none" stroke="black" cx="316" cy="-162" rx="28.41" ry="18"/>
<text text-anchor="middle" x="316" y="-157.8" font-family="Times,serif" font-size="14.00">num</text>
</g>
<!-- Q&#45;&gt;P -->
<g id="edge49" class="edge">
<title>Q&#45;&gt;P</title>
<path fill="none" stroke="black" d="M316,-215.7C316,-207.98 316,-198.71 316,-190.11"/>
<polygon fill="black" stroke="black" points="319.5,-190.1 316,-180.1 312.5,-190.1 319.5,-190.1"/>
</g>
<!-- L -->
<g id="node51" class="node">
<title>L</title>
<ellipse fill="none" stroke="black" cx="171" cy="-90" rx="28.41" ry="18"/>
<text text-anchor="middle" x="171" y="-85.8" font-family="Times,serif" font-size="14.00">num</text>
</g>
<!-- M&#45;&gt;L -->
<g id="edge50" class="edge">
<title>M&#45;&gt;L</title>
<path fill="none" stroke="black" d="M171,-143.7C171,-135.98 171,-126.71 171,-118.11"/>
<polygon fill="black" stroke="black" points="174.5,-118.1 171,-108.1 167.5,-118.1 174.5,-118.1"/>
</g>
<!-- P2 -->
<g id="node52" class="node">
<title>P2</title>
<polygon fill="none" stroke="blue" points="343,-108 289,-108 289,-72 343,-72 343,-108"/>
<text text-anchor="middle" x="316" y="-85.8" font-family="Times,serif" font-size="14.00">2</text>
</g>
<!-- P&#45;&gt;P2 -->
<g id="edge51" class="edge">
<title>P&#45;&gt;P2</title>
<path fill="none" stroke="blue" stroke-dasharray="5,2" d="M316,-143.7C316,-132.85 316,-118.92 316,-108.1"/>
</g>
<!-- L4 -->
<g id="node53" class="node">
<title>L4</title>
<polygon fill="none" stroke="blue" points="198,-36 144,-36 144,0 198,0 198,-36"/>
<text text-anchor="middle" x="171" y="-13.8" font-family="Times,serif" font-size="14.00">4</text>
</g>
<!-- L&#45;&gt;L4 -->
<g id="edge52" class="edge">
<title>L&#45;&gt;L4</title>
<path fill="none" stroke="blue" stroke-dasharray="5,2" d="M171,-71.7C171,-60.85 171,-46.92 171,-36.1"/>
</g>
</g>
</svg>
