<?xml version="1.0" encoding="UTF-8" standalone="no"?>
<!DOCTYPE svg PUBLIC "-//W3C//DTD SVG 1.1//EN"
 "http://www.w3.org/Graphics/SVG/1.1/DTD/svg11.dtd">
<!-- Generated by graphviz version 5.0.1 (0)
 -->
<!-- Pages: 1 -->
<svg width="286pt" height="114pt"
 viewBox="0.00 0.00 285.60 114.00" xmlns="http://www.w3.org/2000/svg" xmlns:xlink="http://www.w3.org/1999/xlink">
<g id="graph0" class="graph" transform="scale(1 1) rotate(0) translate(4 110)">
<polygon fill="white" stroke="none" points="-4,4 -4,-110 281.6,-110 281.6,4 -4,4"/>
<!-- 1 -->
<g id="node1" class="node">
<title>1</title>
<ellipse fill="none" stroke="black" cx="81.6" cy="-53" rx="18" ry="18"/>
<text text-anchor="middle" x="81.6" y="-49.3" font-family="Times New Roman,serif" font-size="14.00">1</text>
</g>
<!-- 2 -->
<g id="node3" class="node">
<title>2</title>
<ellipse fill="none" stroke="black" cx="164.6" cy="-84" rx="18" ry="18"/>
<ellipse fill="none" stroke="black" cx="164.6" cy="-84" rx="22" ry="22"/>
<text text-anchor="middle" x="164.6" y="-80.3" font-family="Times New Roman,serif" font-size="14.00">2</text>
</g>
<!-- 1&#45;&gt;2 -->
<g id="edge3" class="edge">
<title>1&#45;&gt;2</title>
<path fill="none" stroke="black" d="M98.6,-59.12C108.76,-63.01 122.21,-68.16 134.24,-72.76"/>
<polygon fill="black" stroke="black" points="133.32,-76.16 143.91,-76.46 135.82,-69.62 133.32,-76.16"/>
<text text-anchor="middle" x="121.1" y="-71.8" font-family="Times New Roman,serif" font-size="14.00">b</text>
</g>
<!-- 3 -->
<g id="node5" class="node">
<title>3</title>
<ellipse fill="none" stroke="black" cx="164.6" cy="-22" rx="18" ry="18"/>
<ellipse fill="none" stroke="black" cx="164.6" cy="-22" rx="22" ry="22"/>
<text text-anchor="middle" x="164.6" y="-18.3" font-family="Times New Roman,serif" font-size="14.00">3</text>
</g>
<!-- 1&#45;&gt;3 -->
<g id="edge4" class="edge">
<title>1&#45;&gt;3</title>
<path fill="none" stroke="black" d="M98.6,-46.88C108.76,-42.99 122.21,-37.84 134.24,-33.24"/>
<polygon fill="black" stroke="black" points="135.82,-36.38 143.91,-29.54 133.32,-29.84 135.82,-36.38"/>
<text text-anchor="middle" x="121.1" y="-43.8" font-family="Times New Roman,serif" font-size="14.00">a</text>
</g>
<!-- accept list 2 -->
<g id="node2" class="node">
<title>accept list 2</title>
<polygon fill="none" stroke="blue" points="277.6,-102 223.6,-102 223.6,-66 277.6,-66 277.6,-102"/>
<text text-anchor="middle" x="250.6" y="-80.3" font-family="Times New Roman,serif" font-size="14.00">β</text>
</g>
<!-- 2&#45;&gt;accept list 2 -->
<g id="edge1" class="edge">
<title>2&#45;&gt;accept list 2</title>
<path fill="none" stroke="blue" stroke-dasharray="5,2" d="M186.8,-84C197.88,-84 211.54,-84 223.3,-84"/>
</g>
<!-- accept list 3 -->
<g id="node4" class="node">
<title>accept list 3</title>
<polygon fill="none" stroke="blue" points="277.6,-40 223.6,-40 223.6,-4 277.6,-4 277.6,-40"/>
<text text-anchor="middle" x="250.6" y="-18.3" font-family="Times New Roman,serif" font-size="14.00">α</text>
</g>
<!-- 3&#45;&gt;accept list 3 -->
<g id="edge2" class="edge">
<title>3&#45;&gt;accept list 3</title>
<path fill="none" stroke="blue" stroke-dasharray="5,2" d="M186.8,-22C197.88,-22 211.54,-22 223.3,-22"/>
</g>
<!-- 0 -->
<g id="node6" class="node">
<title>0</title>
<ellipse fill="black" stroke="black" cx="1.8" cy="-53" rx="1.8" ry="1.8"/>
</g>
<!-- 0&#45;&gt;1 -->
<g id="edge5" class="edge">
<title>0&#45;&gt;1</title>
<path fill="none" stroke="black" d="M3.67,-53C8.57,-53 33.1,-53 53.16,-53"/>
<polygon fill="black" stroke="black" points="53.41,-56.5 63.41,-53 53.41,-49.5 53.41,-56.5"/>
<text text-anchor="middle" x="33.6" y="-56.8" font-family="Times New Roman,serif" font-size="14.00">start</text>
</g>
</g>
</svg>
