<?xml version="1.0" encoding="UTF-8" standalone="no"?>
<!DOCTYPE svg PUBLIC "-//W3C//DTD SVG 1.1//EN"
 "http://www.w3.org/Graphics/SVG/1.1/DTD/svg11.dtd">
<!-- Generated by graphviz version 5.0.1 (0)
 -->
<!-- Pages: 1 -->
<svg width="441pt" height="1052pt"
 viewBox="0.00 0.00 441.00 1052.00" xmlns="http://www.w3.org/2000/svg" xmlns:xlink="http://www.w3.org/1999/xlink">
<g id="graph0" class="graph" transform="scale(1 1) rotate(0) translate(4 1048)">
<polygon fill="white" stroke="none" points="-4,4 -4,-1048 437,-1048 437,4 -4,4"/>
<!-- 0 -->
<g id="node1" class="node">
<title>0</title>
<ellipse fill="none" stroke="black" cx="252" cy="-1026" rx="27" ry="18"/>
<text text-anchor="middle" x="252" y="-1022.3" font-family="Times New Roman,serif" font-size="14.00">_S</text>
</g>
<!-- 1 -->
<g id="node2" class="node">
<title>1</title>
<ellipse fill="none" stroke="black" cx="252" cy="-954" rx="27" ry="18"/>
<text text-anchor="middle" x="252" y="-950.3" font-family="Times New Roman,serif" font-size="14.00">E</text>
</g>
<!-- 0&#45;&gt;1 -->
<g id="edge1" class="edge">
<title>0&#45;&gt;1</title>
<path fill="none" stroke="black" d="M252,-1007.7C252,-999.98 252,-990.71 252,-982.11"/>
<polygon fill="black" stroke="black" points="255.5,-982.1 252,-972.1 248.5,-982.1 255.5,-982.1"/>
</g>
<!-- 2 -->
<g id="node3" class="node">
<title>2</title>
<ellipse fill="none" stroke="black" cx="167" cy="-882" rx="27" ry="18"/>
<text text-anchor="middle" x="167" y="-878.3" font-family="Times New Roman,serif" font-size="14.00">E</text>
</g>
<!-- 1&#45;&gt;2 -->
<g id="edge2" class="edge">
<title>1&#45;&gt;2</title>
<path fill="none" stroke="black" d="M235.61,-939.5C223.03,-929.14 205.46,-914.67 191.25,-902.97"/>
<polygon fill="black" stroke="black" points="193.28,-900.11 183.34,-896.46 188.83,-905.51 193.28,-900.11"/>
</g>
<!-- 3 -->
<g id="node4" class="node">
<title>3</title>
<ellipse fill="none" stroke="black" cx="252" cy="-882" rx="27" ry="18"/>
<text text-anchor="middle" x="252" y="-878.3" font-family="Times New Roman,serif" font-size="14.00">+</text>
</g>
<!-- 1&#45;&gt;3 -->
<g id="edge3" class="edge">
<title>1&#45;&gt;3</title>
<path fill="none" stroke="black" d="M252,-935.7C252,-927.98 252,-918.71 252,-910.11"/>
<polygon fill="black" stroke="black" points="255.5,-910.1 252,-900.1 248.5,-910.1 255.5,-910.1"/>
</g>
<!-- 4 -->
<g id="node5" class="node">
<title>4</title>
<ellipse fill="none" stroke="black" cx="328" cy="-882" rx="27" ry="18"/>
<text text-anchor="middle" x="328" y="-878.3" font-family="Times New Roman,serif" font-size="14.00">T</text>
</g>
<!-- 1&#45;&gt;4 -->
<g id="edge4" class="edge">
<title>1&#45;&gt;4</title>
<path fill="none" stroke="black" d="M267.38,-938.83C278.2,-928.87 292.86,-915.37 305.05,-904.14"/>
<polygon fill="black" stroke="black" points="307.66,-906.49 312.64,-897.14 302.92,-901.34 307.66,-906.49"/>
</g>
<!-- 7 -->
<g id="node10" class="node">
<title>7</title>
<ellipse fill="none" stroke="black" cx="140" cy="-810" rx="27" ry="18"/>
<text text-anchor="middle" x="140" y="-806.3" font-family="Times New Roman,serif" font-size="14.00">T</text>
</g>
<!-- 2&#45;&gt;7 -->
<g id="edge9" class="edge">
<title>2&#45;&gt;7</title>
<path fill="none" stroke="black" d="M160.6,-864.41C157.49,-856.34 153.67,-846.43 150.17,-837.35"/>
<polygon fill="black" stroke="black" points="153.4,-836.03 146.54,-827.96 146.87,-838.55 153.4,-836.03"/>
</g>
<!-- v3 -->
<g id="node9" class="node">
<title>v3</title>
<polygon fill="none" stroke="blue" points="279,-828 225,-828 225,-792 279,-792 279,-828"/>
<text text-anchor="middle" x="252" y="-806.3" font-family="Times New Roman,serif" font-size="14.00">+</text>
</g>
<!-- 3&#45;&gt;v3 -->
<g id="edge8" class="edge">
<title>3&#45;&gt;v3</title>
<path fill="none" stroke="blue" stroke-dasharray="5,2" d="M252,-863.7C252,-852.85 252,-838.92 252,-828.1"/>
</g>
<!-- 5 -->
<g id="node6" class="node">
<title>5</title>
<ellipse fill="none" stroke="black" cx="331" cy="-810" rx="27" ry="18"/>
<text text-anchor="middle" x="331" y="-806.3" font-family="Times New Roman,serif" font-size="14.00">F</text>
</g>
<!-- 4&#45;&gt;5 -->
<g id="edge5" class="edge">
<title>4&#45;&gt;5</title>
<path fill="none" stroke="black" d="M328.74,-863.7C329.07,-855.98 329.47,-846.71 329.84,-838.11"/>
<polygon fill="black" stroke="black" points="333.34,-838.25 330.27,-828.1 326.34,-837.95 333.34,-838.25"/>
</g>
<!-- 6 -->
<g id="node7" class="node">
<title>6</title>
<ellipse fill="none" stroke="black" cx="385" cy="-738" rx="27" ry="18"/>
<text text-anchor="middle" x="385" y="-734.3" font-family="Times New Roman,serif" font-size="14.00">num</text>
</g>
<!-- 5&#45;&gt;6 -->
<g id="edge6" class="edge">
<title>5&#45;&gt;6</title>
<path fill="none" stroke="black" d="M342.98,-793.46C349.98,-784.4 358.94,-772.79 366.79,-762.61"/>
<polygon fill="black" stroke="black" points="369.71,-764.55 373.05,-754.49 364.17,-760.27 369.71,-764.55"/>
</g>
<!-- v6 -->
<g id="node8" class="node">
<title>v6</title>
<polygon fill="none" stroke="blue" points="424,-684 370,-684 370,-648 424,-648 424,-684"/>
<text text-anchor="middle" x="397" y="-662.3" font-family="Times New Roman,serif" font-size="14.00">8</text>
</g>
<!-- 6&#45;&gt;v6 -->
<g id="edge7" class="edge">
<title>6&#45;&gt;v6</title>
<path fill="none" stroke="blue" stroke-dasharray="5,2" d="M387.9,-720.05C389.76,-709.21 392.17,-695.18 394.04,-684.28"/>
</g>
<!-- 8 -->
<g id="node11" class="node">
<title>8</title>
<ellipse fill="none" stroke="black" cx="29" cy="-738" rx="27" ry="18"/>
<text text-anchor="middle" x="29" y="-734.3" font-family="Times New Roman,serif" font-size="14.00">T</text>
</g>
<!-- 7&#45;&gt;8 -->
<g id="edge10" class="edge">
<title>7&#45;&gt;8</title>
<path fill="none" stroke="black" d="M120.92,-796.97C103.29,-785.85 76.88,-769.19 56.88,-756.58"/>
<polygon fill="black" stroke="black" points="58.53,-753.48 48.2,-751.11 54.8,-759.41 58.53,-753.48"/>
</g>
<!-- 9 -->
<g id="node12" class="node">
<title>9</title>
<ellipse fill="none" stroke="black" cx="137" cy="-738" rx="27" ry="18"/>
<text text-anchor="middle" x="137" y="-734.3" font-family="Times New Roman,serif" font-size="14.00">*</text>
</g>
<!-- 7&#45;&gt;9 -->
<g id="edge11" class="edge">
<title>7&#45;&gt;9</title>
<path fill="none" stroke="black" d="M139.26,-791.7C138.93,-783.98 138.53,-774.71 138.16,-766.11"/>
<polygon fill="black" stroke="black" points="141.66,-765.95 137.73,-756.1 134.66,-766.25 141.66,-765.95"/>
</g>
<!-- 10 -->
<g id="node13" class="node">
<title>10</title>
<ellipse fill="none" stroke="black" cx="209" cy="-738" rx="27" ry="18"/>
<text text-anchor="middle" x="209" y="-734.3" font-family="Times New Roman,serif" font-size="14.00">F</text>
</g>
<!-- 7&#45;&gt;10 -->
<g id="edge12" class="edge">
<title>7&#45;&gt;10</title>
<path fill="none" stroke="black" d="M154.3,-794.5C163.92,-784.73 176.78,-771.69 187.61,-760.7"/>
<polygon fill="black" stroke="black" points="190.19,-763.06 194.72,-753.49 185.21,-758.15 190.19,-763.06"/>
</g>
<!-- 36 -->
<g id="node51" class="node">
<title>36</title>
<ellipse fill="none" stroke="black" cx="27" cy="-666" rx="27" ry="18"/>
<text text-anchor="middle" x="27" y="-662.3" font-family="Times New Roman,serif" font-size="14.00">F</text>
</g>
<!-- 8&#45;&gt;36 -->
<g id="edge50" class="edge">
<title>8&#45;&gt;36</title>
<path fill="none" stroke="black" d="M28.51,-719.7C28.29,-711.98 28.02,-702.71 27.77,-694.11"/>
<polygon fill="black" stroke="black" points="31.27,-694 27.49,-684.1 24.28,-694.2 31.27,-694"/>
</g>
<!-- v9 -->
<g id="node50" class="node">
<title>v9</title>
<polygon fill="none" stroke="blue" points="136,-684 82,-684 82,-648 136,-648 136,-684"/>
<text text-anchor="middle" x="109" y="-662.3" font-family="Times New Roman,serif" font-size="14.00">*</text>
</g>
<!-- 9&#45;&gt;v9 -->
<g id="edge49" class="edge">
<title>9&#45;&gt;v9</title>
<path fill="none" stroke="blue" stroke-dasharray="5,2" d="M130.36,-720.41C126.03,-709.58 120.38,-695.45 115.98,-684.45"/>
</g>
<!-- 11 -->
<g id="node14" class="node">
<title>11</title>
<ellipse fill="none" stroke="black" cx="181" cy="-666" rx="27" ry="18"/>
<text text-anchor="middle" x="181" y="-662.3" font-family="Times New Roman,serif" font-size="14.00">(</text>
</g>
<!-- 10&#45;&gt;11 -->
<g id="edge13" class="edge">
<title>10&#45;&gt;11</title>
<path fill="none" stroke="black" d="M202.36,-720.41C199.09,-712.22 195.06,-702.14 191.38,-692.95"/>
<polygon fill="black" stroke="black" points="194.55,-691.45 187.59,-683.47 188.05,-694.05 194.55,-691.45"/>
</g>
<!-- 12 -->
<g id="node15" class="node">
<title>12</title>
<ellipse fill="none" stroke="black" cx="253" cy="-666" rx="27" ry="18"/>
<text text-anchor="middle" x="253" y="-662.3" font-family="Times New Roman,serif" font-size="14.00">E</text>
</g>
<!-- 10&#45;&gt;12 -->
<g id="edge14" class="edge">
<title>10&#45;&gt;12</title>
<path fill="none" stroke="black" d="M218.98,-721.12C224.5,-712.34 231.46,-701.26 237.65,-691.42"/>
<polygon fill="black" stroke="black" points="240.7,-693.15 243.06,-682.82 234.77,-689.42 240.7,-693.15"/>
</g>
<!-- 13 -->
<g id="node16" class="node">
<title>13</title>
<ellipse fill="none" stroke="black" cx="325" cy="-666" rx="27" ry="18"/>
<text text-anchor="middle" x="325" y="-662.3" font-family="Times New Roman,serif" font-size="14.00">)</text>
</g>
<!-- 10&#45;&gt;13 -->
<g id="edge15" class="edge">
<title>10&#45;&gt;13</title>
<path fill="none" stroke="black" d="M228.42,-725.28C247.15,-713.98 275.72,-696.74 296.93,-683.94"/>
<polygon fill="black" stroke="black" points="298.77,-686.92 305.52,-678.75 295.15,-680.92 298.77,-686.92"/>
</g>
<!-- v11 -->
<g id="node49" class="node">
<title>v11</title>
<polygon fill="none" stroke="blue" points="145,-612 91,-612 91,-576 145,-576 145,-612"/>
<text text-anchor="middle" x="118" y="-590.3" font-family="Times New Roman,serif" font-size="14.00">(</text>
</g>
<!-- 11&#45;&gt;v11 -->
<g id="edge48" class="edge">
<title>11&#45;&gt;v11</title>
<path fill="none" stroke="blue" stroke-dasharray="5,2" d="M167.64,-650.15C157.6,-639 143.83,-623.7 133.34,-612.04"/>
</g>
<!-- 14 -->
<g id="node18" class="node">
<title>14</title>
<ellipse fill="none" stroke="black" cx="190" cy="-594" rx="27" ry="18"/>
<text text-anchor="middle" x="190" y="-590.3" font-family="Times New Roman,serif" font-size="14.00">E</text>
</g>
<!-- 12&#45;&gt;14 -->
<g id="edge17" class="edge">
<title>12&#45;&gt;14</title>
<path fill="none" stroke="black" d="M239.64,-650.15C231.12,-640.69 219.91,-628.24 210.31,-617.56"/>
<polygon fill="black" stroke="black" points="212.63,-614.92 203.34,-609.82 207.43,-619.6 212.63,-614.92"/>
</g>
<!-- 15 -->
<g id="node19" class="node">
<title>15</title>
<ellipse fill="none" stroke="black" cx="262" cy="-594" rx="27" ry="18"/>
<text text-anchor="middle" x="262" y="-590.3" font-family="Times New Roman,serif" font-size="14.00">&#45;</text>
</g>
<!-- 12&#45;&gt;15 -->
<g id="edge18" class="edge">
<title>12&#45;&gt;15</title>
<path fill="none" stroke="black" d="M255.18,-648.05C256.17,-640.35 257.37,-631.03 258.48,-622.36"/>
<polygon fill="black" stroke="black" points="261.98,-622.64 259.78,-612.28 255.03,-621.75 261.98,-622.64"/>
</g>
<!-- 16 -->
<g id="node20" class="node">
<title>16</title>
<ellipse fill="none" stroke="black" cx="334" cy="-594" rx="27" ry="18"/>
<text text-anchor="middle" x="334" y="-590.3" font-family="Times New Roman,serif" font-size="14.00">T</text>
</g>
<!-- 12&#45;&gt;16 -->
<g id="edge19" class="edge">
<title>12&#45;&gt;16</title>
<path fill="none" stroke="black" d="M269,-651.17C280.76,-641.01 296.94,-627.03 310.21,-615.56"/>
<polygon fill="black" stroke="black" points="312.75,-617.99 318.03,-608.8 308.18,-612.69 312.75,-617.99"/>
</g>
<!-- v13 -->
<g id="node17" class="node">
<title>v13</title>
<polygon fill="none" stroke="blue" points="433,-612 379,-612 379,-576 433,-576 433,-612"/>
<text text-anchor="middle" x="406" y="-590.3" font-family="Times New Roman,serif" font-size="14.00">)</text>
</g>
<!-- 13&#45;&gt;v13 -->
<g id="edge16" class="edge">
<title>13&#45;&gt;v13</title>
<path fill="none" stroke="blue" stroke-dasharray="5,2" d="M341,-651.17C354,-639.93 372.4,-624.04 386.31,-612.02"/>
</g>
<!-- 19 -->
<g id="node25" class="node">
<title>19</title>
<ellipse fill="none" stroke="black" cx="99" cy="-522" rx="27" ry="18"/>
<text text-anchor="middle" x="99" y="-518.3" font-family="Times New Roman,serif" font-size="14.00">E</text>
</g>
<!-- 14&#45;&gt;19 -->
<g id="edge24" class="edge">
<title>14&#45;&gt;19</title>
<path fill="none" stroke="black" d="M172.88,-579.83C159.16,-569.27 139.69,-554.3 124.18,-542.37"/>
<polygon fill="black" stroke="black" points="126.1,-539.43 116.04,-536.11 121.83,-544.98 126.1,-539.43"/>
</g>
<!-- 20 -->
<g id="node26" class="node">
<title>20</title>
<ellipse fill="none" stroke="black" cx="171" cy="-522" rx="27" ry="18"/>
<text text-anchor="middle" x="171" y="-518.3" font-family="Times New Roman,serif" font-size="14.00">+</text>
</g>
<!-- 14&#45;&gt;20 -->
<g id="edge25" class="edge">
<title>14&#45;&gt;20</title>
<path fill="none" stroke="black" d="M185.4,-576.05C183.25,-568.14 180.65,-558.54 178.24,-549.69"/>
<polygon fill="black" stroke="black" points="181.55,-548.52 175.56,-539.79 174.8,-550.36 181.55,-548.52"/>
</g>
<!-- 21 -->
<g id="node27" class="node">
<title>21</title>
<ellipse fill="none" stroke="black" cx="243" cy="-522" rx="27" ry="18"/>
<text text-anchor="middle" x="243" y="-518.3" font-family="Times New Roman,serif" font-size="14.00">T</text>
</g>
<!-- 14&#45;&gt;21 -->
<g id="edge26" class="edge">
<title>14&#45;&gt;21</title>
<path fill="none" stroke="black" d="M201.76,-577.46C208.62,-568.4 217.42,-556.79 225.12,-546.61"/>
<polygon fill="black" stroke="black" points="228.02,-548.58 231.27,-538.49 222.44,-544.35 228.02,-548.58"/>
</g>
<!-- v15 -->
<g id="node24" class="node">
<title>v15</title>
<polygon fill="none" stroke="blue" points="342,-540 288,-540 288,-504 342,-504 342,-540"/>
<text text-anchor="middle" x="315" y="-518.3" font-family="Times New Roman,serif" font-size="14.00">&#45;</text>
</g>
<!-- 15&#45;&gt;v15 -->
<g id="edge23" class="edge">
<title>15&#45;&gt;v15</title>
<path fill="none" stroke="blue" stroke-dasharray="5,2" d="M273.76,-577.46C282.06,-566.51 293.18,-551.82 301.78,-540.46"/>
</g>
<!-- 17 -->
<g id="node21" class="node">
<title>17</title>
<ellipse fill="none" stroke="black" cx="387" cy="-522" rx="27" ry="18"/>
<text text-anchor="middle" x="387" y="-518.3" font-family="Times New Roman,serif" font-size="14.00">F</text>
</g>
<!-- 16&#45;&gt;17 -->
<g id="edge20" class="edge">
<title>16&#45;&gt;17</title>
<path fill="none" stroke="black" d="M345.76,-577.46C352.62,-568.4 361.42,-556.79 369.12,-546.61"/>
<polygon fill="black" stroke="black" points="372.02,-548.58 375.27,-538.49 366.44,-544.35 372.02,-548.58"/>
</g>
<!-- 18 -->
<g id="node22" class="node">
<title>18</title>
<ellipse fill="none" stroke="black" cx="387" cy="-450" rx="27" ry="18"/>
<text text-anchor="middle" x="387" y="-446.3" font-family="Times New Roman,serif" font-size="14.00">num</text>
</g>
<!-- 17&#45;&gt;18 -->
<g id="edge21" class="edge">
<title>17&#45;&gt;18</title>
<path fill="none" stroke="black" d="M387,-503.7C387,-495.98 387,-486.71 387,-478.11"/>
<polygon fill="black" stroke="black" points="390.5,-478.1 387,-468.1 383.5,-478.1 390.5,-478.1"/>
</g>
<!-- v18 -->
<g id="node23" class="node">
<title>v18</title>
<polygon fill="none" stroke="blue" points="414,-396 360,-396 360,-360 414,-360 414,-396"/>
<text text-anchor="middle" x="387" y="-374.3" font-family="Times New Roman,serif" font-size="14.00">5</text>
</g>
<!-- 18&#45;&gt;v18 -->
<g id="edge22" class="edge">
<title>18&#45;&gt;v18</title>
<path fill="none" stroke="blue" stroke-dasharray="5,2" d="M387,-431.7C387,-420.85 387,-406.92 387,-396.1"/>
</g>
<!-- 33 -->
<g id="node45" class="node">
<title>33</title>
<ellipse fill="none" stroke="black" cx="99" cy="-450" rx="27" ry="18"/>
<text text-anchor="middle" x="99" y="-446.3" font-family="Times New Roman,serif" font-size="14.00">T</text>
</g>
<!-- 19&#45;&gt;33 -->
<g id="edge44" class="edge">
<title>19&#45;&gt;33</title>
<path fill="none" stroke="black" d="M99,-503.7C99,-495.98 99,-486.71 99,-478.11"/>
<polygon fill="black" stroke="black" points="102.5,-478.1 99,-468.1 95.5,-478.1 102.5,-478.1"/>
</g>
<!-- v20 -->
<g id="node44" class="node">
<title>v20</title>
<polygon fill="none" stroke="blue" points="198,-468 144,-468 144,-432 198,-432 198,-468"/>
<text text-anchor="middle" x="171" y="-446.3" font-family="Times New Roman,serif" font-size="14.00">+</text>
</g>
<!-- 20&#45;&gt;v20 -->
<g id="edge43" class="edge">
<title>20&#45;&gt;v20</title>
<path fill="none" stroke="blue" stroke-dasharray="5,2" d="M171,-503.7C171,-492.85 171,-478.92 171,-468.1"/>
</g>
<!-- 22 -->
<g id="node28" class="node">
<title>22</title>
<ellipse fill="none" stroke="black" cx="243" cy="-450" rx="27" ry="18"/>
<text text-anchor="middle" x="243" y="-446.3" font-family="Times New Roman,serif" font-size="14.00">F</text>
</g>
<!-- 21&#45;&gt;22 -->
<g id="edge27" class="edge">
<title>21&#45;&gt;22</title>
<path fill="none" stroke="black" d="M243,-503.7C243,-495.98 243,-486.71 243,-478.11"/>
<polygon fill="black" stroke="black" points="246.5,-478.1 243,-468.1 239.5,-478.1 246.5,-478.1"/>
</g>
<!-- 23 -->
<g id="node29" class="node">
<title>23</title>
<ellipse fill="none" stroke="black" cx="171" cy="-378" rx="27" ry="18"/>
<text text-anchor="middle" x="171" y="-374.3" font-family="Times New Roman,serif" font-size="14.00">(</text>
</g>
<!-- 22&#45;&gt;23 -->
<g id="edge28" class="edge">
<title>22&#45;&gt;23</title>
<path fill="none" stroke="black" d="M228.43,-434.83C218.25,-424.94 204.48,-411.55 192.97,-400.36"/>
<polygon fill="black" stroke="black" points="195.41,-397.85 185.8,-393.38 190.53,-402.87 195.41,-397.85"/>
</g>
<!-- 24 -->
<g id="node30" class="node">
<title>24</title>
<ellipse fill="none" stroke="black" cx="243" cy="-378" rx="27" ry="18"/>
<text text-anchor="middle" x="243" y="-374.3" font-family="Times New Roman,serif" font-size="14.00">E</text>
</g>
<!-- 22&#45;&gt;24 -->
<g id="edge29" class="edge">
<title>22&#45;&gt;24</title>
<path fill="none" stroke="black" d="M243,-431.7C243,-423.98 243,-414.71 243,-406.11"/>
<polygon fill="black" stroke="black" points="246.5,-406.1 243,-396.1 239.5,-406.1 246.5,-406.1"/>
</g>
<!-- 25 -->
<g id="node31" class="node">
<title>25</title>
<ellipse fill="none" stroke="black" cx="315" cy="-378" rx="27" ry="18"/>
<text text-anchor="middle" x="315" y="-374.3" font-family="Times New Roman,serif" font-size="14.00">)</text>
</g>
<!-- 22&#45;&gt;25 -->
<g id="edge30" class="edge">
<title>22&#45;&gt;25</title>
<path fill="none" stroke="black" d="M257.57,-434.83C267.75,-424.94 281.52,-411.55 293.03,-400.36"/>
<polygon fill="black" stroke="black" points="295.47,-402.87 300.2,-393.38 290.59,-397.85 295.47,-402.87"/>
</g>
<!-- v23 -->
<g id="node43" class="node">
<title>v23</title>
<polygon fill="none" stroke="blue" points="198,-324 144,-324 144,-288 198,-288 198,-324"/>
<text text-anchor="middle" x="171" y="-302.3" font-family="Times New Roman,serif" font-size="14.00">(</text>
</g>
<!-- 23&#45;&gt;v23 -->
<g id="edge42" class="edge">
<title>23&#45;&gt;v23</title>
<path fill="none" stroke="blue" stroke-dasharray="5,2" d="M171,-359.7C171,-348.85 171,-334.92 171,-324.1"/>
</g>
<!-- 26 -->
<g id="node33" class="node">
<title>26</title>
<ellipse fill="none" stroke="black" cx="243" cy="-306" rx="27" ry="18"/>
<text text-anchor="middle" x="243" y="-302.3" font-family="Times New Roman,serif" font-size="14.00">T</text>
</g>
<!-- 24&#45;&gt;26 -->
<g id="edge32" class="edge">
<title>24&#45;&gt;26</title>
<path fill="none" stroke="black" d="M243,-359.7C243,-351.98 243,-342.71 243,-334.11"/>
<polygon fill="black" stroke="black" points="246.5,-334.1 243,-324.1 239.5,-334.1 246.5,-334.1"/>
</g>
<!-- v25 -->
<g id="node32" class="node">
<title>v25</title>
<polygon fill="none" stroke="blue" points="342,-324 288,-324 288,-288 342,-288 342,-324"/>
<text text-anchor="middle" x="315" y="-302.3" font-family="Times New Roman,serif" font-size="14.00">)</text>
</g>
<!-- 25&#45;&gt;v25 -->
<g id="edge31" class="edge">
<title>25&#45;&gt;v25</title>
<path fill="none" stroke="blue" stroke-dasharray="5,2" d="M315,-359.7C315,-348.85 315,-334.92 315,-324.1"/>
</g>
<!-- 27 -->
<g id="node34" class="node">
<title>27</title>
<ellipse fill="none" stroke="black" cx="171" cy="-234" rx="27" ry="18"/>
<text text-anchor="middle" x="171" y="-230.3" font-family="Times New Roman,serif" font-size="14.00">T</text>
</g>
<!-- 26&#45;&gt;27 -->
<g id="edge33" class="edge">
<title>26&#45;&gt;27</title>
<path fill="none" stroke="black" d="M228.43,-290.83C218.25,-280.94 204.48,-267.55 192.97,-256.36"/>
<polygon fill="black" stroke="black" points="195.41,-253.85 185.8,-249.38 190.53,-258.87 195.41,-253.85"/>
</g>
<!-- 28 -->
<g id="node35" class="node">
<title>28</title>
<ellipse fill="none" stroke="black" cx="243" cy="-234" rx="27" ry="18"/>
<text text-anchor="middle" x="243" y="-230.3" font-family="Times New Roman,serif" font-size="14.00">/</text>
</g>
<!-- 26&#45;&gt;28 -->
<g id="edge34" class="edge">
<title>26&#45;&gt;28</title>
<path fill="none" stroke="black" d="M243,-287.7C243,-279.98 243,-270.71 243,-262.11"/>
<polygon fill="black" stroke="black" points="246.5,-262.1 243,-252.1 239.5,-262.1 246.5,-262.1"/>
</g>
<!-- 29 -->
<g id="node36" class="node">
<title>29</title>
<ellipse fill="none" stroke="black" cx="315" cy="-234" rx="27" ry="18"/>
<text text-anchor="middle" x="315" y="-230.3" font-family="Times New Roman,serif" font-size="14.00">F</text>
</g>
<!-- 26&#45;&gt;29 -->
<g id="edge35" class="edge">
<title>26&#45;&gt;29</title>
<path fill="none" stroke="black" d="M257.57,-290.83C267.75,-280.94 281.52,-267.55 293.03,-256.36"/>
<polygon fill="black" stroke="black" points="295.47,-258.87 300.2,-249.38 290.59,-253.85 295.47,-258.87"/>
</g>
<!-- 31 -->
<g id="node40" class="node">
<title>31</title>
<ellipse fill="none" stroke="black" cx="171" cy="-162" rx="27" ry="18"/>
<text text-anchor="middle" x="171" y="-158.3" font-family="Times New Roman,serif" font-size="14.00">F</text>
</g>
<!-- 27&#45;&gt;31 -->
<g id="edge39" class="edge">
<title>27&#45;&gt;31</title>
<path fill="none" stroke="black" d="M171,-215.7C171,-207.98 171,-198.71 171,-190.11"/>
<polygon fill="black" stroke="black" points="174.5,-190.1 171,-180.1 167.5,-190.1 174.5,-190.1"/>
</g>
<!-- v28 -->
<g id="node39" class="node">
<title>v28</title>
<polygon fill="none" stroke="blue" points="270,-180 216,-180 216,-144 270,-144 270,-180"/>
<text text-anchor="middle" x="243" y="-158.3" font-family="Times New Roman,serif" font-size="14.00">/</text>
</g>
<!-- 28&#45;&gt;v28 -->
<g id="edge38" class="edge">
<title>28&#45;&gt;v28</title>
<path fill="none" stroke="blue" stroke-dasharray="5,2" d="M243,-215.7C243,-204.85 243,-190.92 243,-180.1"/>
</g>
<!-- 30 -->
<g id="node37" class="node">
<title>30</title>
<ellipse fill="none" stroke="black" cx="315" cy="-162" rx="27" ry="18"/>
<text text-anchor="middle" x="315" y="-158.3" font-family="Times New Roman,serif" font-size="14.00">num</text>
</g>
<!-- 29&#45;&gt;30 -->
<g id="edge36" class="edge">
<title>29&#45;&gt;30</title>
<path fill="none" stroke="black" d="M315,-215.7C315,-207.98 315,-198.71 315,-190.11"/>
<polygon fill="black" stroke="black" points="318.5,-190.1 315,-180.1 311.5,-190.1 318.5,-190.1"/>
</g>
<!-- v30 -->
<g id="node38" class="node">
<title>v30</title>
<polygon fill="none" stroke="blue" points="342,-108 288,-108 288,-72 342,-72 342,-108"/>
<text text-anchor="middle" x="315" y="-86.3" font-family="Times New Roman,serif" font-size="14.00">2</text>
</g>
<!-- 30&#45;&gt;v30 -->
<g id="edge37" class="edge">
<title>30&#45;&gt;v30</title>
<path fill="none" stroke="blue" stroke-dasharray="5,2" d="M315,-143.7C315,-132.85 315,-118.92 315,-108.1"/>
</g>
<!-- 32 -->
<g id="node41" class="node">
<title>32</title>
<ellipse fill="none" stroke="black" cx="171" cy="-90" rx="27" ry="18"/>
<text text-anchor="middle" x="171" y="-86.3" font-family="Times New Roman,serif" font-size="14.00">num</text>
</g>
<!-- 31&#45;&gt;32 -->
<g id="edge40" class="edge">
<title>31&#45;&gt;32</title>
<path fill="none" stroke="black" d="M171,-143.7C171,-135.98 171,-126.71 171,-118.11"/>
<polygon fill="black" stroke="black" points="174.5,-118.1 171,-108.1 167.5,-118.1 174.5,-118.1"/>
</g>
<!-- v32 -->
<g id="node42" class="node">
<title>v32</title>
<polygon fill="none" stroke="blue" points="198,-36 144,-36 144,0 198,0 198,-36"/>
<text text-anchor="middle" x="171" y="-14.3" font-family="Times New Roman,serif" font-size="14.00">4</text>
</g>
<!-- 32&#45;&gt;v32 -->
<g id="edge41" class="edge">
<title>32&#45;&gt;v32</title>
<path fill="none" stroke="blue" stroke-dasharray="5,2" d="M171,-71.7C171,-60.85 171,-46.92 171,-36.1"/>
</g>
<!-- 34 -->
<g id="node46" class="node">
<title>34</title>
<ellipse fill="none" stroke="black" cx="99" cy="-378" rx="27" ry="18"/>
<text text-anchor="middle" x="99" y="-374.3" font-family="Times New Roman,serif" font-size="14.00">F</text>
</g>
<!-- 33&#45;&gt;34 -->
<g id="edge45" class="edge">
<title>33&#45;&gt;34</title>
<path fill="none" stroke="black" d="M99,-431.7C99,-423.98 99,-414.71 99,-406.11"/>
<polygon fill="black" stroke="black" points="102.5,-406.1 99,-396.1 95.5,-406.1 102.5,-406.1"/>
</g>
<!-- 35 -->
<g id="node47" class="node">
<title>35</title>
<ellipse fill="none" stroke="black" cx="99" cy="-306" rx="27" ry="18"/>
<text text-anchor="middle" x="99" y="-302.3" font-family="Times New Roman,serif" font-size="14.00">num</text>
</g>
<!-- 34&#45;&gt;35 -->
<g id="edge46" class="edge">
<title>34&#45;&gt;35</title>
<path fill="none" stroke="black" d="M99,-359.7C99,-351.98 99,-342.71 99,-334.11"/>
<polygon fill="black" stroke="black" points="102.5,-334.1 99,-324.1 95.5,-334.1 102.5,-334.1"/>
</g>
<!-- v35 -->
<g id="node48" class="node">
<title>v35</title>
<polygon fill="none" stroke="blue" points="126,-252 72,-252 72,-216 126,-216 126,-252"/>
<text text-anchor="middle" x="99" y="-230.3" font-family="Times New Roman,serif" font-size="14.00">6</text>
</g>
<!-- 35&#45;&gt;v35 -->
<g id="edge47" class="edge">
<title>35&#45;&gt;v35</title>
<path fill="none" stroke="blue" stroke-dasharray="5,2" d="M99,-287.7C99,-276.85 99,-262.92 99,-252.1"/>
</g>
<!-- 37 -->
<g id="node52" class="node">
<title>37</title>
<ellipse fill="none" stroke="black" cx="27" cy="-594" rx="27" ry="18"/>
<text text-anchor="middle" x="27" y="-590.3" font-family="Times New Roman,serif" font-size="14.00">num</text>
</g>
<!-- 36&#45;&gt;37 -->
<g id="edge51" class="edge">
<title>36&#45;&gt;37</title>
<path fill="none" stroke="black" d="M27,-647.7C27,-639.98 27,-630.71 27,-622.11"/>
<polygon fill="black" stroke="black" points="30.5,-622.1 27,-612.1 23.5,-622.1 30.5,-622.1"/>
</g>
<!-- v37 -->
<g id="node53" class="node">
<title>v37</title>
<polygon fill="none" stroke="blue" points="54,-540 0,-540 0,-504 54,-504 54,-540"/>
<text text-anchor="middle" x="27" y="-518.3" font-family="Times New Roman,serif" font-size="14.00">3</text>
</g>
<!-- 37&#45;&gt;v37 -->
<g id="edge52" class="edge">
<title>37&#45;&gt;v37</title>
<path fill="none" stroke="blue" stroke-dasharray="5,2" d="M27,-575.7C27,-564.85 27,-550.92 27,-540.1"/>
</g>
</g>
</svg>
