<?xml version="1.0" encoding="UTF-8" standalone="no"?>
<!DOCTYPE svg PUBLIC "-//W3C//DTD SVG 1.1//EN"
 "http://www.w3.org/Graphics/SVG/1.1/DTD/svg11.dtd">
<!-- Generated by graphviz version 5.0.1 (0)
 -->
<!-- Pages: 1 -->
<svg width="566pt" height="404pt"
 viewBox="0.00 0.00 566.00 404.00" xmlns="http://www.w3.org/2000/svg" xmlns:xlink="http://www.w3.org/1999/xlink">
<g id="graph0" class="graph" transform="scale(1 1) rotate(0) translate(4 400)">
<polygon fill="white" stroke="none" points="-4,4 -4,-400 562,-400 562,4 -4,4"/>
<!-- 0 -->
<g id="node1" class="node">
<title>0</title>
<ellipse fill="none" stroke="black" cx="135" cy="-378" rx="27" ry="18"/>
<text text-anchor="middle" x="135" y="-374.3" font-family="Times New Roman,serif" font-size="14.00">_S</text>
</g>
<!-- 1 -->
<g id="node2" class="node">
<title>1</title>
<ellipse fill="none" stroke="black" cx="135" cy="-306" rx="27" ry="18"/>
<text text-anchor="middle" x="135" y="-302.3" font-family="Times New Roman,serif" font-size="14.00">S</text>
</g>
<!-- 0&#45;&gt;1 -->
<g id="edge1" class="edge">
<title>0&#45;&gt;1</title>
<path fill="none" stroke="black" d="M135,-359.7C135,-351.98 135,-342.71 135,-334.11"/>
<polygon fill="black" stroke="black" points="138.5,-334.1 135,-324.1 131.5,-334.1 138.5,-334.1"/>
</g>
<!-- 2 -->
<g id="node3" class="node">
<title>2</title>
<ellipse fill="none" stroke="black" cx="27" cy="-234" rx="27" ry="18"/>
<text text-anchor="middle" x="27" y="-230.3" font-family="Times New Roman,serif" font-size="14.00">C</text>
</g>
<!-- 1&#45;&gt;2 -->
<g id="edge2" class="edge">
<title>1&#45;&gt;2</title>
<path fill="none" stroke="black" d="M116.19,-292.81C99,-281.67 73.38,-265.06 54.01,-252.5"/>
<polygon fill="black" stroke="black" points="55.89,-249.56 45.6,-247.05 52.08,-255.43 55.89,-249.56"/>
</g>
<!-- 3 -->
<g id="node4" class="node">
<title>3</title>
<ellipse fill="none" stroke="black" cx="99" cy="-234" rx="27" ry="18"/>
<text text-anchor="middle" x="99" y="-230.3" font-family="Times New Roman,serif" font-size="14.00">β</text>
</g>
<!-- 1&#45;&gt;3 -->
<g id="edge3" class="edge">
<title>1&#45;&gt;3</title>
<path fill="none" stroke="black" d="M126.65,-288.76C122.29,-280.28 116.85,-269.71 111.96,-260.2"/>
<polygon fill="black" stroke="black" points="114.99,-258.44 107.3,-251.15 108.77,-261.64 114.99,-258.44"/>
</g>
<!-- 4 -->
<g id="node5" class="node">
<title>4</title>
<ellipse fill="none" stroke="black" cx="171" cy="-234" rx="27" ry="18"/>
<text text-anchor="middle" x="171" y="-230.3" font-family="Times New Roman,serif" font-size="14.00">B</text>
</g>
<!-- 1&#45;&gt;4 -->
<g id="edge4" class="edge">
<title>1&#45;&gt;4</title>
<path fill="none" stroke="black" d="M143.35,-288.76C147.71,-280.28 153.15,-269.71 158.04,-260.2"/>
<polygon fill="black" stroke="black" points="161.23,-261.64 162.7,-251.15 155.01,-258.44 161.23,-261.64"/>
</g>
<!-- 5 -->
<g id="node6" class="node">
<title>5</title>
<ellipse fill="none" stroke="black" cx="423" cy="-234" rx="27" ry="18"/>
<text text-anchor="middle" x="423" y="-230.3" font-family="Times New Roman,serif" font-size="14.00">A</text>
</g>
<!-- 1&#45;&gt;5 -->
<g id="edge5" class="edge">
<title>1&#45;&gt;5</title>
<path fill="none" stroke="black" d="M160.05,-298.91C211.44,-286.42 328.86,-257.88 387.83,-243.55"/>
<polygon fill="black" stroke="black" points="388.91,-246.89 397.8,-241.13 387.25,-240.09 388.91,-246.89"/>
</g>
<!-- 14 -->
<g id="node22" class="node">
<title>14</title>
<ellipse fill="none" stroke="black" cx="27" cy="-162" rx="27" ry="18"/>
<text text-anchor="middle" x="27" y="-158.3" font-family="Times New Roman,serif" font-size="14.00">α</text>
</g>
<!-- 2&#45;&gt;14 -->
<g id="edge21" class="edge">
<title>2&#45;&gt;14</title>
<path fill="none" stroke="black" d="M27,-215.7C27,-207.98 27,-198.71 27,-190.11"/>
<polygon fill="black" stroke="black" points="30.5,-190.1 27,-180.1 23.5,-190.1 30.5,-190.1"/>
</g>
<!-- value 3 -->
<g id="node21" class="node">
<title>value 3</title>
<polygon fill="none" stroke="blue" points="126,-180 72,-180 72,-144 126,-144 126,-180"/>
<text text-anchor="middle" x="99" y="-158.3" font-family="Times New Roman,serif" font-size="14.00">b</text>
</g>
<!-- 3&#45;&gt;value 3 -->
<g id="edge20" class="edge">
<title>3&#45;&gt;value 3</title>
<path fill="none" stroke="blue" stroke-dasharray="5,2" d="M99,-215.7C99,-204.85 99,-190.92 99,-180.1"/>
</g>
<!-- 11 -->
<g id="node16" class="node">
<title>11</title>
<ellipse fill="none" stroke="black" cx="171" cy="-162" rx="27" ry="18"/>
<text text-anchor="middle" x="171" y="-158.3" font-family="Times New Roman,serif" font-size="14.00">D</text>
</g>
<!-- 4&#45;&gt;11 -->
<g id="edge15" class="edge">
<title>4&#45;&gt;11</title>
<path fill="none" stroke="black" d="M171,-215.7C171,-207.98 171,-198.71 171,-190.11"/>
<polygon fill="black" stroke="black" points="174.5,-190.1 171,-180.1 167.5,-190.1 174.5,-190.1"/>
</g>
<!-- 12 -->
<g id="node17" class="node">
<title>12</title>
<ellipse fill="none" stroke="black" cx="243" cy="-162" rx="27" ry="18"/>
<text text-anchor="middle" x="243" y="-158.3" font-family="Times New Roman,serif" font-size="14.00">β</text>
</g>
<!-- 4&#45;&gt;12 -->
<g id="edge16" class="edge">
<title>4&#45;&gt;12</title>
<path fill="none" stroke="black" d="M185.57,-218.83C195.75,-208.94 209.52,-195.55 221.03,-184.36"/>
<polygon fill="black" stroke="black" points="223.47,-186.87 228.2,-177.38 218.59,-181.85 223.47,-186.87"/>
</g>
<!-- 6 -->
<g id="node7" class="node">
<title>6</title>
<ellipse fill="none" stroke="black" cx="387" cy="-162" rx="27" ry="18"/>
<text text-anchor="middle" x="387" y="-158.3" font-family="Times New Roman,serif" font-size="14.00">A</text>
</g>
<!-- 5&#45;&gt;6 -->
<g id="edge6" class="edge">
<title>5&#45;&gt;6</title>
<path fill="none" stroke="black" d="M414.65,-216.76C410.29,-208.28 404.85,-197.71 399.96,-188.2"/>
<polygon fill="black" stroke="black" points="402.99,-186.44 395.3,-179.15 396.77,-189.64 402.99,-186.44"/>
</g>
<!-- 7 -->
<g id="node8" class="node">
<title>7</title>
<ellipse fill="none" stroke="black" cx="459" cy="-162" rx="27" ry="18"/>
<text text-anchor="middle" x="459" y="-158.3" font-family="Times New Roman,serif" font-size="14.00">α</text>
</g>
<!-- 5&#45;&gt;7 -->
<g id="edge7" class="edge">
<title>5&#45;&gt;7</title>
<path fill="none" stroke="black" d="M431.35,-216.76C435.71,-208.28 441.15,-197.71 446.04,-188.2"/>
<polygon fill="black" stroke="black" points="449.23,-189.64 450.7,-179.15 443.01,-186.44 449.23,-189.64"/>
</g>
<!-- 8 -->
<g id="node9" class="node">
<title>8</title>
<ellipse fill="none" stroke="black" cx="531" cy="-162" rx="27" ry="18"/>
<text text-anchor="middle" x="531" y="-158.3" font-family="Times New Roman,serif" font-size="14.00">β</text>
</g>
<!-- 5&#45;&gt;8 -->
<g id="edge8" class="edge">
<title>5&#45;&gt;8</title>
<path fill="none" stroke="black" d="M441.81,-220.81C459,-209.67 484.62,-193.06 503.99,-180.5"/>
<polygon fill="black" stroke="black" points="505.92,-183.43 512.4,-175.05 502.11,-177.56 505.92,-183.43"/>
</g>
<!-- 9 -->
<g id="node12" class="node">
<title>9</title>
<ellipse fill="none" stroke="black" cx="315" cy="-90" rx="27" ry="18"/>
<text text-anchor="middle" x="315" y="-86.3" font-family="Times New Roman,serif" font-size="14.00">α</text>
</g>
<!-- 6&#45;&gt;9 -->
<g id="edge11" class="edge">
<title>6&#45;&gt;9</title>
<path fill="none" stroke="black" d="M372.43,-146.83C362.25,-136.94 348.48,-123.55 336.97,-112.36"/>
<polygon fill="black" stroke="black" points="339.41,-109.85 329.8,-105.38 334.53,-114.87 339.41,-109.85"/>
</g>
<!-- 10 -->
<g id="node13" class="node">
<title>10</title>
<ellipse fill="none" stroke="black" cx="387" cy="-90" rx="27" ry="18"/>
<text text-anchor="middle" x="387" y="-86.3" font-family="Times New Roman,serif" font-size="14.00">β</text>
</g>
<!-- 6&#45;&gt;10 -->
<g id="edge12" class="edge">
<title>6&#45;&gt;10</title>
<path fill="none" stroke="black" d="M387,-143.7C387,-135.98 387,-126.71 387,-118.11"/>
<polygon fill="black" stroke="black" points="390.5,-118.1 387,-108.1 383.5,-118.1 390.5,-118.1"/>
</g>
<!-- value 7 -->
<g id="node11" class="node">
<title>value 7</title>
<polygon fill="none" stroke="blue" points="486,-108 432,-108 432,-72 486,-72 486,-108"/>
<text text-anchor="middle" x="459" y="-86.3" font-family="Times New Roman,serif" font-size="14.00">a</text>
</g>
<!-- 7&#45;&gt;value 7 -->
<g id="edge10" class="edge">
<title>7&#45;&gt;value 7</title>
<path fill="none" stroke="blue" stroke-dasharray="5,2" d="M459,-143.7C459,-132.85 459,-118.92 459,-108.1"/>
</g>
<!-- value 8 -->
<g id="node10" class="node">
<title>value 8</title>
<polygon fill="none" stroke="blue" points="558,-108 504,-108 504,-72 558,-72 558,-108"/>
<text text-anchor="middle" x="531" y="-86.3" font-family="Times New Roman,serif" font-size="14.00">b</text>
</g>
<!-- 8&#45;&gt;value 8 -->
<g id="edge9" class="edge">
<title>8&#45;&gt;value 8</title>
<path fill="none" stroke="blue" stroke-dasharray="5,2" d="M531,-143.7C531,-132.85 531,-118.92 531,-108.1"/>
</g>
<!-- value 9 -->
<g id="node15" class="node">
<title>value 9</title>
<polygon fill="none" stroke="blue" points="342,-36 288,-36 288,0 342,0 342,-36"/>
<text text-anchor="middle" x="315" y="-14.3" font-family="Times New Roman,serif" font-size="14.00">a</text>
</g>
<!-- 9&#45;&gt;value 9 -->
<g id="edge14" class="edge">
<title>9&#45;&gt;value 9</title>
<path fill="none" stroke="blue" stroke-dasharray="5,2" d="M315,-71.7C315,-60.85 315,-46.92 315,-36.1"/>
</g>
<!-- value 10 -->
<g id="node14" class="node">
<title>value 10</title>
<polygon fill="none" stroke="blue" points="414,-36 360,-36 360,0 414,0 414,-36"/>
<text text-anchor="middle" x="387" y="-14.3" font-family="Times New Roman,serif" font-size="14.00">b</text>
</g>
<!-- 10&#45;&gt;value 10 -->
<g id="edge13" class="edge">
<title>10&#45;&gt;value 10</title>
<path fill="none" stroke="blue" stroke-dasharray="5,2" d="M387,-71.7C387,-60.85 387,-46.92 387,-36.1"/>
</g>
<!-- 13 -->
<g id="node19" class="node">
<title>13</title>
<ellipse fill="none" stroke="black" cx="171" cy="-90" rx="27" ry="18"/>
<text text-anchor="middle" x="171" y="-86.3" font-family="Times New Roman,serif" font-size="14.00">α</text>
</g>
<!-- 11&#45;&gt;13 -->
<g id="edge18" class="edge">
<title>11&#45;&gt;13</title>
<path fill="none" stroke="black" d="M171,-143.7C171,-135.98 171,-126.71 171,-118.11"/>
<polygon fill="black" stroke="black" points="174.5,-118.1 171,-108.1 167.5,-118.1 174.5,-118.1"/>
</g>
<!-- value 12 -->
<g id="node18" class="node">
<title>value 12</title>
<polygon fill="none" stroke="blue" points="270,-108 216,-108 216,-72 270,-72 270,-108"/>
<text text-anchor="middle" x="243" y="-86.3" font-family="Times New Roman,serif" font-size="14.00">b</text>
</g>
<!-- 12&#45;&gt;value 12 -->
<g id="edge17" class="edge">
<title>12&#45;&gt;value 12</title>
<path fill="none" stroke="blue" stroke-dasharray="5,2" d="M243,-143.7C243,-132.85 243,-118.92 243,-108.1"/>
</g>
<!-- value 13 -->
<g id="node20" class="node">
<title>value 13</title>
<polygon fill="none" stroke="blue" points="198,-36 144,-36 144,0 198,0 198,-36"/>
<text text-anchor="middle" x="171" y="-14.3" font-family="Times New Roman,serif" font-size="14.00">a</text>
</g>
<!-- 13&#45;&gt;value 13 -->
<g id="edge19" class="edge">
<title>13&#45;&gt;value 13</title>
<path fill="none" stroke="blue" stroke-dasharray="5,2" d="M171,-71.7C171,-60.85 171,-46.92 171,-36.1"/>
</g>
<!-- value 14 -->
<g id="node23" class="node">
<title>value 14</title>
<polygon fill="none" stroke="blue" points="54,-108 0,-108 0,-72 54,-72 54,-108"/>
<text text-anchor="middle" x="27" y="-86.3" font-family="Times New Roman,serif" font-size="14.00">a</text>
</g>
<!-- 14&#45;&gt;value 14 -->
<g id="edge22" class="edge">
<title>14&#45;&gt;value 14</title>
<path fill="none" stroke="blue" stroke-dasharray="5,2" d="M27,-143.7C27,-132.85 27,-118.92 27,-108.1"/>
</g>
</g>
</svg>
