<svg width="756" height="756" xmlns="http://www.w3.org/2000/svg" xmlns:xlink="http://www.w3.org/1999/xlink" overflow="hidden"><defs><clipPath id="clip0"><rect x="0" y="0" width="756" height="756"/></clipPath></defs><g clip-path="url(#clip0)"><rect x="0" y="0" width="756" height="756" fill="#FFFFFF"/><rect x="214" y="88" width="151" height="151" stroke="#000000" stroke-width="2.00044" stroke-miterlimit="8" fill="#FFFFFF"/><text font-family="Calibri,Calibri_MSFontService,sans-serif" font-weight="400" font-size="32" transform="translate(223.786 123)">(0, 0, 1)</text><rect x="365" y="88" width="152" height="151" stroke="#000000" stroke-width="2.00044" stroke-miterlimit="8" fill="#FFFFFF"/><text font-family="Calibri,Calibri_MSFontService,sans-serif" font-weight="400" font-size="32" transform="translate(375.001 123)">(0, 1, 1)</text><rect x="517" y="88" width="151" height="151" stroke="#000000" stroke-width="2.00044" stroke-miterlimit="8" fill="#FFFFFF"/><text font-family="Calibri,Calibri_MSFontService,sans-serif" font-weight="400" font-size="32" transform="translate(526.215 123)">(0, 2, 1)</text><rect x="517" y="239" width="151" height="152" stroke="#000000" stroke-width="2.00044" stroke-miterlimit="8" fill="#FFFFFF"/><rect x="516" y="391" width="151" height="151" stroke="#000000" stroke-width="2.00044" stroke-miterlimit="8" fill="#FFFFFF"/><rect x="214" y="239" width="151" height="152" stroke="#000000" stroke-width="2.00044" stroke-miterlimit="8" fill="#FFFFFF"/><rect x="214" y="391" width="151" height="151" stroke="#000000" stroke-width="2.00044" stroke-miterlimit="8" fill="#FFFFFF"/><rect x="365" y="239" width="152" height="152" stroke="#000000" stroke-width="2.00044" stroke-miterlimit="8" fill="#FFFFFF"/><rect x="365" y="391" width="152" height="151" stroke="#000000" stroke-width="2.00044" stroke-miterlimit="8" fill="#FFFFFF"/><rect x="215" y="88" width="453" height="454" stroke="#000000" stroke-width="4.00088" stroke-miterlimit="8" fill="none"/><rect x="151" y="151" width="151" height="151" stroke="#000000" stroke-width="2.00044" stroke-miterlimit="8" fill="#FFFFFF"/><text font-family="Calibri,Calibri_MSFontService,sans-serif" font-weight="400" font-size="32" transform="translate(160.78 186)">(0, 0, 1)</text><rect x="151" y="302" width="151" height="152" stroke="#000000" stroke-width="2.00044" stroke-miterlimit="8" fill="#FFFFFF"/><rect x="151" y="454" width="151" height="151" stroke="#000000" stroke-width="2.00044" stroke-miterlimit="8" fill="#FFFFFF"/><rect x="302" y="151" width="152" height="151" stroke="#000000" stroke-width="2.00044" stroke-miterlimit="8" fill="#FFFFFF"/><text font-family="Calibri,Calibri_MSFontService,sans-serif" font-weight="400" font-size="32" transform="translate(311.995 186)">(0, 1, 1)</text><rect x="302" y="302" width="152" height="152" stroke="#000000" stroke-width="2.00044" stroke-miterlimit="8" fill="#FFFFFF"/><rect x="302" y="454" width="152" height="151" stroke="#000000" stroke-width="2.00044" stroke-miterlimit="8" fill="#FFFFFF"/><rect x="454" y="151" width="151" height="151" stroke="#000000" stroke-width="2.00044" stroke-miterlimit="8" fill="#FFFFFF"/><text font-family="Calibri,Calibri_MSFontService,sans-serif" font-weight="400" font-size="32" transform="translate(463.209 186)">(0, 2, 1)</text><rect x="454" y="302" width="151" height="152" stroke="#000000" stroke-width="2.00044" stroke-miterlimit="8" fill="#FFFFFF"/><rect x="454" y="454" width="151" height="151" stroke="#000000" stroke-width="2.00044" stroke-miterlimit="8" fill="#FFFFFF"/><rect x="239" y="365" width="152" height="152" stroke="#000000" stroke-width="2.00044" stroke-miterlimit="8" fill="#FFFFFF"/><text font-family="Calibri,Calibri_MSFontService,sans-serif" font-weight="400" font-size="32" transform="translate(265.9 452)">(1, 1, 0)</text><rect x="88" y="214" width="151" height="151" stroke="#000000" stroke-width="2.00044" stroke-miterlimit="8" fill="#FFFFFF"/><text font-family="Calibri,Calibri_MSFontService,sans-serif" font-weight="400" font-size="32" transform="translate(114.685 301)">(0, 0, 0)</text><rect x="88" y="365" width="151" height="152" stroke="#000000" stroke-width="2.00044" stroke-miterlimit="8" fill="#FFFFFF"/><text font-family="Calibri,Calibri_MSFontService,sans-serif" font-weight="400" font-size="32" transform="translate(114.685 452)">(1, 0, 0)</text><rect x="88" y="517" width="151" height="151" stroke="#000000" stroke-width="2.00044" stroke-miterlimit="8" fill="#FFFFFF"/><text font-family="Calibri,Calibri_MSFontService,sans-serif" font-weight="400" font-size="32" transform="translate(114.685 603)">(2, 0, 0)</text><rect x="239" y="214" width="152" height="151" stroke="#000000" stroke-width="2.00044" stroke-miterlimit="8" fill="#FFFFFF"/><text font-family="Calibri,Calibri_MSFontService,sans-serif" font-weight="400" font-size="32" transform="translate(265.9 301)">(0, 1, 0)</text><rect x="239" y="517" width="152" height="151" stroke="#000000" stroke-width="2.00044" stroke-miterlimit="8" fill="#FFFFFF"/><text font-family="Calibri,Calibri_MSFontService,sans-serif" font-weight="400" font-size="32" transform="translate(265.9 603)">(2, 1, 0)</text><rect x="391" y="214" width="151" height="151" stroke="#000000" stroke-width="2.00044" stroke-miterlimit="8" fill="#FFFFFF"/><text font-family="Calibri,Calibri_MSFontService,sans-serif" font-weight="400" font-size="32" transform="translate(417.114 301)">(0, 2, 0)</text><rect x="391" y="365" width="151" height="152" stroke="#000000" stroke-width="2.00044" stroke-miterlimit="8" fill="#FFFFFF"/><text font-family="Calibri,Calibri_MSFontService,sans-serif" font-weight="400" font-size="32" transform="translate(417.114 452)">(1, 2, 0)</text><rect x="391" y="517" width="151" height="151" stroke="#000000" stroke-width="2.00044" stroke-miterlimit="8" fill="#FFFFFF"/><text font-family="Calibri,Calibri_MSFontService,sans-serif" font-weight="400" font-size="32" transform="translate(417.114 603)">(2, 2, 0)</text><path d="M202.656 125.044C227.869 102.218 258.877 95.3875 271.914 109.788 284.95 124.188 275.079 154.365 249.865 177.191 224.652 200.017 193.644 206.848 180.607 192.448 171.318 182.187 173.43 163.341 186.002 144.298L178.947 140.648 196.249 135.589 198.081 150.548 191.023 146.896C174.782 170.748 177.392 191.974 196.853 194.306 216.314 196.637 245.257 179.192 261.498 155.339 277.74 131.487 275.13 110.261 255.668 107.93 241.893 106.279 222.681 114.619 206.489 129.278Z" stroke="#ED7D31" stroke-width="2.00044" stroke-miterlimit="8" fill="none" fill-rule="evenodd"/><path d="M0 0 126.012 126.012" stroke="#000000" stroke-width="4.00088" stroke-miterlimit="8" fill="none" fill-rule="evenodd" transform="matrix(1 0 0 -1 88 214.012)"/><path d="M0 0 126.012 126.012" stroke="#000000" stroke-width="4.00088" stroke-miterlimit="8" fill="none" fill-rule="evenodd" transform="matrix(1 0 0 -1 542 215.012)"/><path d="M0 0 126.012 126.012" stroke="#000000" stroke-width="4.00088" stroke-miterlimit="8" fill="none" fill-rule="evenodd" transform="matrix(1 0 0 -1 542 668.012)"/><rect x="88" y="214" width="453" height="454" stroke="#000000" stroke-width="4.00088" stroke-miterlimit="8" fill="none"/><path d="M0 0 126.012 126.012" stroke="#000000" stroke-width="2.00044" stroke-miterlimit="8" fill="none" fill-rule="evenodd" transform="matrix(1 0 0 -1 240 214.012)"/><path d="M0 0 126.012 126.012" stroke="#000000" stroke-width="2.00044" stroke-miterlimit="8" fill="none" fill-rule="evenodd" transform="matrix(1 0 0 -1 390 214.012)"/><path d="M0 0 126.012 126.012" stroke="#000000" stroke-width="2.00044" stroke-miterlimit="8" fill="none" fill-rule="evenodd" transform="matrix(1 0 0 -1 543 365.012)"/><path d="M0 0 126.012 126.012" stroke="#000000" stroke-width="2.00044" stroke-miterlimit="8" fill="none" fill-rule="evenodd" transform="matrix(1 0 0 -1 541 518.012)"/><path d="M360.324 125.044C385.537 102.218 416.545 95.3874 429.581 109.788 442.618 124.188 432.747 154.365 407.533 177.191 382.32 200.017 351.312 206.848 338.275 192.448 328.986 182.187 331.098 163.341 343.67 144.298L336.615 140.647 353.917 135.589 355.749 150.548 348.691 146.896C332.449 170.748 335.059 191.974 354.521 194.306 373.982 196.637 402.925 179.191 419.166 155.339 435.407 131.487 432.797 110.261 413.336 107.929 399.56 106.279 380.349 114.619 364.156 129.278Z" stroke="#ED7D31" stroke-width="2.00044" stroke-miterlimit="8" fill="none" fill-rule="evenodd"/><path d="M506.559 124.474C531.772 101.648 562.78 94.8176 575.817 109.218 588.853 123.618 578.982 153.796 553.768 176.622 528.555 199.448 497.547 206.278 484.511 191.878 475.221 181.617 477.333 162.771 489.905 143.728L482.85 140.078 500.152 135.019 501.984 149.978 494.926 146.326C478.685 170.178 481.295 191.404 500.756 193.736 520.217 196.068 549.16 178.622 565.401 154.77 581.643 130.917 579.033 109.691 559.571 107.36 545.796 105.709 526.584 114.049 510.392 128.708Z" stroke="#ED7D31" stroke-width="2.00044" stroke-miterlimit="8" fill="none" fill-rule="evenodd"/><path d="M582.065 212.052C607.279 189.226 638.286 182.395 651.323 196.795 664.36 211.196 654.488 241.373 629.275 264.199 604.061 287.025 573.053 293.856 560.017 279.456 550.728 269.195 552.839 250.349 565.412 231.306L558.356 227.655 575.659 222.597 577.49 237.556 570.432 233.904C554.191 257.756 556.801 278.982 576.262 281.314 595.723 283.645 624.666 266.199 640.908 242.347 657.149 218.495 654.539 197.269 635.078 194.937 621.302 193.287 602.09 201.626 585.898 216.286Z" stroke="#ED7D31" stroke-width="2.00044" stroke-miterlimit="8" fill="none" fill-rule="evenodd"/><path d="M582.214 362.577C607.427 339.751 638.435 332.921 651.472 347.321 664.508 361.721 654.637 391.899 629.423 414.725 604.21 437.551 573.202 444.381 560.165 429.981 550.876 419.72 552.988 400.874 565.56 381.832L558.505 378.181 575.807 373.122 577.639 388.082 570.581 384.429C554.34 408.281 556.95 429.508 576.411 431.839 595.872 434.171 624.815 416.725 641.056 392.873 657.298 369.021 654.688 347.794 635.226 345.463 621.451 343.812 602.239 352.152 586.047 366.811Z" stroke="#ED7D31" stroke-width="2.00044" stroke-miterlimit="8" fill="none" fill-rule="evenodd"/><path d="M582.065 512.699C607.279 489.873 638.286 483.043 651.323 497.443 664.36 511.843 654.488 542.021 629.275 564.847 604.061 587.673 573.053 594.503 560.017 580.103 550.728 569.842 552.839 550.996 565.412 531.954L558.356 528.303 575.659 523.244 577.49 538.204 570.432 534.551C554.191 558.404 556.801 579.63 576.262 581.961 595.723 584.293 624.666 566.847 640.908 542.995 657.149 519.143 654.539 497.916 635.078 495.585 621.302 493.934 602.09 502.274 585.898 516.933Z" stroke="#ED7D31" stroke-width="2.00044" stroke-miterlimit="8" fill="none" fill-rule="evenodd"/></g></svg>