<svg width="756" height="756" xmlns="http://www.w3.org/2000/svg" xmlns:xlink="http://www.w3.org/1999/xlink" overflow="hidden"><defs><clipPath id="clip0"><rect x="0" y="0" width="756" height="756"/></clipPath></defs><g clip-path="url(#clip0)"><rect x="0" y="0" width="756" height="756" fill="#FFFFFF"/><rect x="214" y="88" width="151" height="151" stroke="#000000" stroke-width="2.00044" stroke-miterlimit="8" fill="#FFFFFF"/><text font-family="Calibri,Calibri_MSFontService,sans-serif" font-weight="400" font-size="32" transform="translate(223.786 123)">(0, 0, 2)</text><rect x="365" y="88" width="152" height="151" stroke="#000000" stroke-width="2.00044" stroke-miterlimit="8" fill="#FFFFFF"/><text font-family="Calibri,Calibri_MSFontService,sans-serif" font-weight="400" font-size="32" transform="translate(375.001 123)">(0, 1, 2)</text><rect x="517" y="88" width="151" height="151" stroke="#000000" stroke-width="2.00044" stroke-miterlimit="8" fill="#FFFFFF"/><text font-family="Calibri,Calibri_MSFontService,sans-serif" font-weight="400" font-size="32" transform="translate(526.215 123)">(0, 2, 2)</text><rect x="517" y="239" width="151" height="152" stroke="#000000" stroke-width="2.00044" stroke-miterlimit="8" fill="#FFFFFF"/><rect x="516" y="391" width="151" height="151" stroke="#000000" stroke-width="2.00044" stroke-miterlimit="8" fill="#FFFFFF"/><rect x="214" y="239" width="151" height="152" stroke="#000000" stroke-width="2.00044" stroke-miterlimit="8" fill="#FFFFFF"/><rect x="214" y="391" width="151" height="151" stroke="#000000" stroke-width="2.00044" stroke-miterlimit="8" fill="#FFFFFF"/><rect x="365" y="239" width="152" height="152" stroke="#000000" stroke-width="2.00044" stroke-miterlimit="8" fill="#FFFFFF"/><rect x="365" y="391" width="152" height="151" stroke="#000000" stroke-width="2.00044" stroke-miterlimit="8" fill="#FFFFFF"/><path d="M442 102.78C559.758 102.78 655.22 130.189 655.22 164 655.22 197.811 559.758 225.22 442 225.22 324.242 225.22 228.78 197.811 228.78 164 228.78 135.399 297.752 110.609 394.905 104.292L390.138 91.5327 421.09 108.034 403.263 126.661 398.498 113.908C288.831 119.969 219.404 147.309 243.43 174.974 267.455 202.638 375.835 220.152 485.502 214.091 595.169 208.031 664.596 180.691 640.57 153.026 620.132 129.492 537.505 112.72 442 112.72Z" stroke="#70AD47" stroke-width="2.00044" stroke-miterlimit="8" fill="none" fill-rule="evenodd"/><path d="M442 252.688C559.809 252.688 655.312 279.914 655.312 313.5 655.312 347.086 559.809 374.312 442 374.312 324.191 374.312 228.688 347.086 228.688 313.5 228.688 285.055 297.855 260.41 395.203 254.169L390.468 241.497 421.228 257.903 403.505 276.391 398.773 263.725C288.983 269.703 219.334 296.834 243.208 324.324 267.081 351.813 375.437 369.253 485.227 363.275 595.017 357.297 664.666 330.167 640.793 302.677 620.458 279.262 537.698 262.562 442 262.562Z" stroke="#70AD47" stroke-width="2.00044" stroke-miterlimit="8" fill="none" fill-rule="evenodd"/><path d="M443 404.78C560.758 404.78 656.22 432.189 656.22 466 656.22 499.811 560.758 527.22 443 527.22 325.242 527.22 229.78 499.811 229.78 466 229.78 437.399 298.752 412.609 395.905 406.292L391.138 393.533 422.09 410.034 404.263 428.661 399.498 415.908C289.831 421.969 220.404 449.309 244.43 476.974 268.455 504.638 376.835 522.152 486.502 516.091 596.169 510.031 665.596 482.691 641.57 455.026 621.132 431.492 538.505 414.72 443 414.72Z" stroke="#70AD47" stroke-width="2.00044" stroke-miterlimit="8" fill="none" fill-rule="evenodd"/><rect x="215" y="88" width="453" height="454" stroke="#000000" stroke-width="4.00088" stroke-miterlimit="8" fill="none"/><rect x="151" y="151" width="151" height="151" stroke="#000000" stroke-width="2.00044" stroke-miterlimit="8" fill="#FFFFFF"/><text font-family="Calibri,Calibri_MSFontService,sans-serif" font-weight="400" font-size="32" transform="translate(160.78 186)">(0, 0, 1)</text><rect x="151" y="302" width="151" height="152" stroke="#000000" stroke-width="2.00044" stroke-miterlimit="8" fill="#FFFFFF"/><rect x="151" y="454" width="151" height="151" stroke="#000000" stroke-width="2.00044" stroke-miterlimit="8" fill="#FFFFFF"/><rect x="302" y="151" width="152" height="151" stroke="#000000" stroke-width="2.00044" stroke-miterlimit="8" fill="#FFFFFF"/><text font-family="Calibri,Calibri_MSFontService,sans-serif" font-weight="400" font-size="32" transform="translate(311.995 186)">(0, 1, 1)</text><rect x="302" y="302" width="152" height="152" stroke="#000000" stroke-width="2.00044" stroke-miterlimit="8" fill="#FFFFFF"/><rect x="302" y="454" width="152" height="151" stroke="#000000" stroke-width="2.00044" stroke-miterlimit="8" fill="#FFFFFF"/><rect x="454" y="151" width="151" height="151" stroke="#000000" stroke-width="2.00044" stroke-miterlimit="8" fill="#FFFFFF"/><text font-family="Calibri,Calibri_MSFontService,sans-serif" font-weight="400" font-size="32" transform="translate(463.209 186)">(0, 2, 1)</text><rect x="454" y="302" width="151" height="152" stroke="#000000" stroke-width="2.00044" stroke-miterlimit="8" fill="#FFFFFF"/><rect x="454" y="454" width="151" height="151" stroke="#000000" stroke-width="2.00044" stroke-miterlimit="8" fill="#FFFFFF"/><path d="M375.5 164.688C493.033 164.688 588.312 191.915 588.312 225.5 588.312 259.085 493.033 286.312 375.5 286.312 257.967 286.312 162.688 259.085 162.688 225.5 162.688 197.066 231.639 172.428 328.708 166.176L323.974 153.503 354.729 169.905 337.011 188.397 332.278 175.731C222.77 181.722 153.347 208.862 177.218 236.349 201.089 263.836 309.214 281.261 418.722 275.269 528.23 269.278 597.653 242.138 573.782 214.651 553.458 191.249 470.924 174.562 375.5 174.562Z" stroke="#70AD47" stroke-width="2.00044" stroke-miterlimit="8" fill="none" fill-rule="evenodd"/><path d="M376 314.688C493.809 314.688 589.312 341.915 589.312 375.5 589.312 409.086 493.809 436.312 376 436.312 258.191 436.312 162.688 409.086 162.688 375.5 162.688 347.055 231.855 322.41 329.203 316.17L324.468 303.497 355.228 319.903 337.505 338.392 332.773 325.725C222.983 331.703 153.334 358.834 177.207 386.324 201.081 413.814 309.437 431.253 419.227 425.275 529.017 419.297 598.666 392.167 574.793 364.677 554.458 341.262 471.698 324.562 376 324.562Z" stroke="#70AD47" stroke-width="2.00044" stroke-miterlimit="8" fill="none" fill-rule="evenodd"/><path d="M376 466.688C493.809 466.688 589.312 493.915 589.312 527.5 589.312 561.086 493.809 588.312 376 588.312 258.191 588.312 162.688 561.086 162.688 527.5 162.688 499.055 231.855 474.41 329.203 468.17L324.468 455.497 355.228 471.903 337.505 490.392 332.773 477.725C222.983 483.703 153.334 510.834 177.207 538.324 201.081 565.814 309.437 583.253 419.227 577.275 529.017 571.297 598.666 544.167 574.793 516.677 554.458 493.262 471.698 476.562 376 476.562Z" stroke="#70AD47" stroke-width="2.00044" stroke-miterlimit="8" fill="none" fill-rule="evenodd"/><rect x="239" y="365" width="152" height="152" stroke="#000000" stroke-width="2.00044" stroke-miterlimit="8" fill="#FFFFFF"/><text font-family="Calibri,Calibri_MSFontService,sans-serif" font-weight="400" font-size="32" transform="translate(265.9 452)">(1, 1, 0)</text><rect x="88" y="214" width="151" height="151" stroke="#000000" stroke-width="2.00044" stroke-miterlimit="8" fill="#FFFFFF"/><text font-family="Calibri,Calibri_MSFontService,sans-serif" font-weight="400" font-size="32" transform="translate(114.685 301)">(0, 0, 0)</text><rect x="88" y="365" width="151" height="152" stroke="#000000" stroke-width="2.00044" stroke-miterlimit="8" fill="#FFFFFF"/><text font-family="Calibri,Calibri_MSFontService,sans-serif" font-weight="400" font-size="32" transform="translate(114.685 452)">(1, 0, 0)</text><rect x="88" y="517" width="151" height="151" stroke="#000000" stroke-width="2.00044" stroke-miterlimit="8" fill="#FFFFFF"/><text font-family="Calibri,Calibri_MSFontService,sans-serif" font-weight="400" font-size="32" transform="translate(114.685 603)">(2, 0, 0)</text><rect x="239" y="214" width="152" height="151" stroke="#000000" stroke-width="2.00044" stroke-miterlimit="8" fill="#FFFFFF"/><text font-family="Calibri,Calibri_MSFontService,sans-serif" font-weight="400" font-size="32" transform="translate(265.9 301)">(0, 1, 0)</text><rect x="239" y="517" width="152" height="151" stroke="#000000" stroke-width="2.00044" stroke-miterlimit="8" fill="#FFFFFF"/><text font-family="Calibri,Calibri_MSFontService,sans-serif" font-weight="400" font-size="32" transform="translate(265.9 603)">(2, 1, 0)</text><rect x="391" y="214" width="151" height="151" stroke="#000000" stroke-width="2.00044" stroke-miterlimit="8" fill="#FFFFFF"/><text font-family="Calibri,Calibri_MSFontService,sans-serif" font-weight="400" font-size="32" transform="translate(417.114 301)">(0, 2, 0)</text><rect x="391" y="365" width="151" height="152" stroke="#000000" stroke-width="2.00044" stroke-miterlimit="8" fill="#FFFFFF"/><text font-family="Calibri,Calibri_MSFontService,sans-serif" font-weight="400" font-size="32" transform="translate(417.114 452)">(1, 2, 0)</text><rect x="391" y="517" width="151" height="151" stroke="#000000" stroke-width="2.00044" stroke-miterlimit="8" fill="#FFFFFF"/><text font-family="Calibri,Calibri_MSFontService,sans-serif" font-weight="400" font-size="32" transform="translate(417.114 603)">(2, 2, 0)</text><rect x="88" y="214" width="453" height="454" stroke="#000000" stroke-width="4.00088" stroke-miterlimit="8" fill="none"/><path d="M0 0 126.012 126.012" stroke="#000000" stroke-width="4.00088" stroke-miterlimit="8" fill="none" fill-rule="evenodd" transform="matrix(1 0 0 -1 88 214.012)"/><path d="M0 0 126.012 126.012" stroke="#000000" stroke-width="4.00088" stroke-miterlimit="8" fill="none" fill-rule="evenodd" transform="matrix(1 0 0 -1 542 215.012)"/><path d="M0 0 126.012 126.012" stroke="#000000" stroke-width="4.00088" stroke-miterlimit="8" fill="none" fill-rule="evenodd" transform="matrix(1 0 0 -1 542 668.012)"/><path d="M0 0 126.012 126.012" stroke="#000000" stroke-width="2.00044" stroke-miterlimit="8" fill="none" fill-rule="evenodd" transform="matrix(1 0 0 -1 240 214.012)"/><path d="M0 0 126.012 126.012" stroke="#000000" stroke-width="2.00044" stroke-miterlimit="8" fill="none" fill-rule="evenodd" transform="matrix(1 0 0 -1 390 214.012)"/><path d="M0 0 126.012 126.012" stroke="#000000" stroke-width="2.00044" stroke-miterlimit="8" fill="none" fill-rule="evenodd" transform="matrix(1 0 0 -1 543 365.012)"/><path d="M0 0 126.012 126.012" stroke="#000000" stroke-width="2.00044" stroke-miterlimit="8" fill="none" fill-rule="evenodd" transform="matrix(1 0 0 -1 541 518.012)"/><path d="M314 229.688C431.809 229.688 527.312 256.914 527.312 290.5 527.312 324.086 431.809 351.312 314 351.312 196.191 351.312 100.688 324.086 100.688 290.5 100.688 262.055 169.855 237.41 267.203 231.169L262.468 218.497 293.228 234.903 275.505 253.391 270.773 240.725C160.983 246.703 91.3339 273.834 115.207 301.324 139.081 328.813 247.437 346.253 357.227 340.275 467.017 334.297 536.666 307.167 512.793 279.677 492.458 256.262 409.698 239.562 314 239.562Z" stroke="#70AD47" stroke-width="2.00044" stroke-miterlimit="8" fill="none" fill-rule="evenodd"/><path d="M314.5 378.78C431.982 378.78 527.22 406.189 527.22 440 527.22 473.811 431.982 501.221 314.5 501.221 197.018 501.221 101.78 473.811 101.78 440 101.78 411.411 170.535 386.628 267.41 380.299L262.643 367.539 293.59 384.036 275.768 402.667 271.003 389.914C161.617 395.989 92.4171 423.338 116.44 451 140.463 478.662 248.611 496.161 357.997 490.086 467.382 484.011 536.582 456.662 512.56 429 492.132 405.479 409.731 388.721 314.5 388.721Z" stroke="#70AD47" stroke-width="2.00044" stroke-miterlimit="8" fill="none" fill-rule="evenodd"/><path d="M315 531.688C432.809 531.688 528.312 558.914 528.312 592.5 528.312 626.086 432.809 653.312 315 653.312 197.191 653.312 101.688 626.086 101.688 592.5 101.688 564.055 170.855 539.41 268.203 533.169L263.468 520.497 294.228 536.903 276.505 555.391 271.773 542.725C161.983 548.703 92.3339 575.834 116.207 603.324 140.081 630.813 248.437 648.253 358.227 642.275 468.017 636.297 537.666 609.167 513.793 581.677 493.458 558.262 410.698 541.562 315 541.562Z" stroke="#70AD47" stroke-width="2.00044" stroke-miterlimit="8" fill="none" fill-rule="evenodd"/></g></svg>