<svg width="756" height="756" xmlns="http://www.w3.org/2000/svg" xmlns:xlink="http://www.w3.org/1999/xlink" overflow="hidden"><defs><clipPath id="clip0"><rect x="0" y="0" width="756" height="756"/></clipPath></defs><g clip-path="url(#clip0)"><rect x="0" y="0" width="756" height="756" fill="#FFFFFF"/><rect x="214" y="88" width="151" height="151" stroke="#000000" stroke-width="2.00044" stroke-miterlimit="8" fill="#FFFFFF"/><text font-family="Calibri,Calibri_MSFontService,sans-serif" font-weight="400" font-size="32" transform="translate(223.786 123)">(0, 0, 2)</text><rect x="365" y="88" width="152" height="151" stroke="#000000" stroke-width="2.00044" stroke-miterlimit="8" fill="#FFFFFF"/><text font-family="Calibri,Calibri_MSFontService,sans-serif" font-weight="400" font-size="32" transform="translate(375.001 123)">(0, 1, 2)</text><rect x="517" y="88" width="151" height="151" stroke="#000000" stroke-width="2.00044" stroke-miterlimit="8" fill="#FFFFFF"/><text font-family="Calibri,Calibri_MSFontService,sans-serif" font-weight="400" font-size="32" transform="translate(526.215 123)">(0, 2, 2)</text><rect x="517" y="239" width="151" height="152" stroke="#000000" stroke-width="2.00044" stroke-miterlimit="8" fill="#FFFFFF"/><rect x="516" y="391" width="151" height="151" stroke="#000000" stroke-width="2.00044" stroke-miterlimit="8" fill="#FFFFFF"/><rect x="214" y="239" width="151" height="152" stroke="#000000" stroke-width="2.00044" stroke-miterlimit="8" fill="#FFFFFF"/><rect x="214" y="391" width="151" height="151" stroke="#000000" stroke-width="2.00044" stroke-miterlimit="8" fill="#FFFFFF"/><rect x="365" y="239" width="152" height="152" stroke="#000000" stroke-width="2.00044" stroke-miterlimit="8" fill="#FFFFFF"/><rect x="365" y="391" width="152" height="151" stroke="#000000" stroke-width="2.00044" stroke-miterlimit="8" fill="#FFFFFF"/><path d="M230.688 315.5C230.688 197.967 257.914 102.688 291.5 102.688 325.085 102.688 352.312 197.967 352.312 315.5 352.312 433.033 325.085 528.312 291.5 528.312 263.066 528.312 238.428 459.361 232.176 362.292L219.503 367.026 235.905 336.271 254.397 353.989 241.731 358.722C247.722 468.23 274.862 537.653 302.349 513.782 329.835 489.911 347.261 381.786 341.269 272.278 335.278 162.77 308.138 93.3473 280.651 117.218 257.249 137.542 240.562 220.076 240.562 315.5Z" stroke="#4472C4" stroke-width="2.00044" stroke-miterlimit="8" fill="none" fill-rule="evenodd"/><path d="M379.78 315C379.78 197.242 407.189 101.78 441 101.78 474.811 101.78 502.22 197.242 502.22 315 502.22 432.758 474.811 528.22 441 528.22 412.399 528.22 387.609 459.248 381.292 362.095L368.533 366.862 385.034 335.91 403.661 353.737 390.908 358.502C396.969 468.169 424.309 537.596 451.973 513.57 479.638 489.545 497.152 381.165 491.091 271.498 485.031 161.831 457.691 92.404 430.026 116.429 406.492 136.868 389.72 219.495 389.72 315Z" stroke="#4472C4" stroke-width="2.00044" stroke-miterlimit="8" fill="none" fill-rule="evenodd"/><path d="M532.688 315C532.688 197.191 559.914 101.688 593.5 101.688 627.086 101.688 654.312 197.191 654.312 315 654.312 432.809 627.086 528.312 593.5 528.312 565.055 528.312 540.41 459.145 534.169 361.797L521.497 366.532 537.903 335.772 556.391 353.495 543.725 358.227C549.703 468.017 576.834 537.666 604.324 513.793 631.813 489.919 649.253 381.563 643.275 271.773 637.297 161.983 610.167 92.3338 582.677 116.207 559.262 136.541 542.562 219.302 542.562 315Z" stroke="#4472C4" stroke-width="2.00044" stroke-miterlimit="8" fill="none" fill-rule="evenodd"/><rect x="215" y="88" width="453" height="454" stroke="#000000" stroke-width="4.00088" stroke-miterlimit="8" fill="none"/><rect x="151" y="151" width="151" height="151" stroke="#000000" stroke-width="2.00044" stroke-miterlimit="8" fill="#FFFFFF"/><text font-family="Calibri,Calibri_MSFontService,sans-serif" font-weight="400" font-size="32" transform="translate(160.78 186)">(0, 0, 1)</text><rect x="151" y="302" width="151" height="152" stroke="#000000" stroke-width="2.00044" stroke-miterlimit="8" fill="#FFFFFF"/><rect x="151" y="454" width="151" height="151" stroke="#000000" stroke-width="2.00044" stroke-miterlimit="8" fill="#FFFFFF"/><rect x="302" y="151" width="152" height="151" stroke="#000000" stroke-width="2.00044" stroke-miterlimit="8" fill="#FFFFFF"/><text font-family="Calibri,Calibri_MSFontService,sans-serif" font-weight="400" font-size="32" transform="translate(311.995 186)">(0, 1, 1)</text><rect x="302" y="302" width="152" height="152" stroke="#000000" stroke-width="2.00044" stroke-miterlimit="8" fill="#FFFFFF"/><rect x="302" y="454" width="152" height="151" stroke="#000000" stroke-width="2.00044" stroke-miterlimit="8" fill="#FFFFFF"/><rect x="454" y="151" width="151" height="151" stroke="#000000" stroke-width="2.00044" stroke-miterlimit="8" fill="#FFFFFF"/><text font-family="Calibri,Calibri_MSFontService,sans-serif" font-weight="400" font-size="32" transform="translate(463.209 186)">(0, 2, 1)</text><rect x="454" y="302" width="151" height="152" stroke="#000000" stroke-width="2.00044" stroke-miterlimit="8" fill="#FFFFFF"/><rect x="454" y="454" width="151" height="151" stroke="#000000" stroke-width="2.00044" stroke-miterlimit="8" fill="#FFFFFF"/><path d="M163.688 377C163.688 259.191 190.914 163.688 224.5 163.688 258.086 163.688 285.312 259.191 285.312 377 285.312 494.809 258.086 590.312 224.5 590.312 196.055 590.312 171.41 521.145 165.169 423.797L152.497 428.532 168.903 397.772 187.392 415.495 174.725 420.227C180.703 530.017 207.834 599.666 235.324 575.793 262.813 551.919 280.253 443.563 274.275 333.773 268.297 223.983 241.167 154.334 213.677 178.207 190.262 198.542 173.562 281.302 173.562 377Z" stroke="#4472C4" stroke-width="2.00044" stroke-miterlimit="8" fill="none" fill-rule="evenodd"/><path d="M313.688 377C313.688 259.191 340.914 163.688 374.5 163.688 408.086 163.688 435.312 259.191 435.312 377 435.312 494.809 408.086 590.312 374.5 590.312 346.055 590.312 321.41 521.145 315.169 423.797L302.497 428.532 318.903 397.772 337.392 415.495 324.725 420.227C330.703 530.017 357.834 599.666 385.324 575.793 412.813 551.919 430.253 443.563 424.275 333.773 418.297 223.983 391.167 154.334 363.677 178.207 340.262 198.542 323.562 281.302 323.562 377Z" stroke="#4472C4" stroke-width="2.00044" stroke-miterlimit="8" fill="none" fill-rule="evenodd"/><path d="M465.78 376.5C465.78 259.018 493.189 163.78 527 163.78 560.811 163.78 588.221 259.018 588.221 376.5 588.221 493.982 560.811 589.22 527 589.22 498.411 589.22 473.628 520.465 467.299 423.59L454.539 428.357 471.036 397.41 489.667 415.232 476.914 419.997C482.989 529.383 510.338 598.583 538 574.56 565.661 550.537 583.161 442.389 577.086 333.003 571.011 223.618 543.662 154.418 516 178.44 492.479 198.868 475.72 281.269 475.72 376.5Z" stroke="#4472C4" stroke-width="2.00044" stroke-miterlimit="8" fill="none" fill-rule="evenodd"/><rect x="239" y="365" width="152" height="152" stroke="#000000" stroke-width="2.00044" stroke-miterlimit="8" fill="#FFFFFF"/><text font-family="Calibri,Calibri_MSFontService,sans-serif" font-weight="400" font-size="32" transform="translate(265.9 452)">(1, 1, 0)</text><rect x="88" y="214" width="151" height="151" stroke="#000000" stroke-width="2.00044" stroke-miterlimit="8" fill="#FFFFFF"/><text font-family="Calibri,Calibri_MSFontService,sans-serif" font-weight="400" font-size="32" transform="translate(114.685 301)">(0, 0, 0)</text><rect x="88" y="365" width="151" height="152" stroke="#000000" stroke-width="2.00044" stroke-miterlimit="8" fill="#FFFFFF"/><text font-family="Calibri,Calibri_MSFontService,sans-serif" font-weight="400" font-size="32" transform="translate(114.685 452)">(1, 0, 0)</text><rect x="88" y="517" width="151" height="151" stroke="#000000" stroke-width="2.00044" stroke-miterlimit="8" fill="#FFFFFF"/><text font-family="Calibri,Calibri_MSFontService,sans-serif" font-weight="400" font-size="32" transform="translate(114.685 603)">(2, 0, 0)</text><rect x="239" y="214" width="152" height="151" stroke="#000000" stroke-width="2.00044" stroke-miterlimit="8" fill="#FFFFFF"/><text font-family="Calibri,Calibri_MSFontService,sans-serif" font-weight="400" font-size="32" transform="translate(265.9 301)">(0, 1, 0)</text><rect x="239" y="517" width="152" height="151" stroke="#000000" stroke-width="2.00044" stroke-miterlimit="8" fill="#FFFFFF"/><text font-family="Calibri,Calibri_MSFontService,sans-serif" font-weight="400" font-size="32" transform="translate(265.9 603)">(2, 1, 0)</text><rect x="391" y="214" width="151" height="151" stroke="#000000" stroke-width="2.00044" stroke-miterlimit="8" fill="#FFFFFF"/><text font-family="Calibri,Calibri_MSFontService,sans-serif" font-weight="400" font-size="32" transform="translate(417.114 301)">(0, 2, 0)</text><rect x="391" y="365" width="151" height="152" stroke="#000000" stroke-width="2.00044" stroke-miterlimit="8" fill="#FFFFFF"/><text font-family="Calibri,Calibri_MSFontService,sans-serif" font-weight="400" font-size="32" transform="translate(417.114 452)">(1, 2, 0)</text><rect x="391" y="517" width="151" height="151" stroke="#000000" stroke-width="2.00044" stroke-miterlimit="8" fill="#FFFFFF"/><text font-family="Calibri,Calibri_MSFontService,sans-serif" font-weight="400" font-size="32" transform="translate(417.114 603)">(2, 2, 0)</text><rect x="88" y="214" width="453" height="454" stroke="#000000" stroke-width="4.00088" stroke-miterlimit="8" fill="none"/><path d="M0 0 126.012 126.012" stroke="#000000" stroke-width="4.00088" stroke-miterlimit="8" fill="none" fill-rule="evenodd" transform="matrix(1 0 0 -1 88 214.012)"/><path d="M0 0 126.012 126.012" stroke="#000000" stroke-width="4.00088" stroke-miterlimit="8" fill="none" fill-rule="evenodd" transform="matrix(1 0 0 -1 542 215.012)"/><path d="M0 0 126.012 126.012" stroke="#000000" stroke-width="4.00088" stroke-miterlimit="8" fill="none" fill-rule="evenodd" transform="matrix(1 0 0 -1 542 668.012)"/><path d="M0 0 126.012 126.012" stroke="#000000" stroke-width="2.00044" stroke-miterlimit="8" fill="none" fill-rule="evenodd" transform="matrix(1 0 0 -1 240 214.012)"/><path d="M0 0 126.012 126.012" stroke="#000000" stroke-width="2.00044" stroke-miterlimit="8" fill="none" fill-rule="evenodd" transform="matrix(1 0 0 -1 390 214.012)"/><path d="M0 0 126.012 126.012" stroke="#000000" stroke-width="2.00044" stroke-miterlimit="8" fill="none" fill-rule="evenodd" transform="matrix(1 0 0 -1 543 365.012)"/><path d="M0 0 126.012 126.012" stroke="#000000" stroke-width="2.00044" stroke-miterlimit="8" fill="none" fill-rule="evenodd" transform="matrix(1 0 0 -1 541 518.012)"/><path d="M102.688 441.5C102.688 323.967 129.915 228.688 163.5 228.688 197.085 228.688 224.312 323.967 224.312 441.5 224.312 559.033 197.085 654.312 163.5 654.312 135.066 654.312 110.428 585.361 104.176 488.292L91.5033 493.026 107.905 462.271 126.397 479.989 113.731 484.722C119.722 594.23 146.862 663.653 174.349 639.782 201.835 615.911 219.261 507.786 213.269 398.278 207.278 288.77 180.138 219.347 152.651 243.218 129.249 263.542 112.562 346.076 112.562 441.5Z" stroke="#4472C4" stroke-width="2.00044" stroke-miterlimit="8" fill="none" fill-rule="evenodd"/><path d="M252.688 441C252.688 323.191 279.914 227.688 313.5 227.688 347.086 227.688 374.312 323.191 374.312 441 374.312 558.809 347.086 654.312 313.5 654.312 285.055 654.312 260.41 585.145 254.169 487.797L241.497 492.532 257.903 461.772 276.391 479.495 263.725 484.227C269.703 594.017 296.834 663.666 324.324 639.792 351.813 615.919 369.253 507.563 363.275 397.773 357.297 287.983 330.167 218.334 302.677 242.207 279.262 262.542 262.562 345.302 262.562 441Z" stroke="#4472C4" stroke-width="2.00044" stroke-miterlimit="8" fill="none" fill-rule="evenodd"/><path d="M404.688 441C404.688 323.191 431.914 227.688 465.5 227.688 499.086 227.688 526.312 323.191 526.312 441 526.312 558.809 499.086 654.312 465.5 654.312 437.055 654.312 412.41 585.145 406.169 487.797L393.497 492.532 409.903 461.772 428.392 479.495 415.725 484.227C421.703 594.017 448.834 663.666 476.324 639.792 503.813 615.919 521.253 507.563 515.275 397.773 509.297 287.983 482.167 218.334 454.677 242.207 431.262 262.542 414.562 345.302 414.562 441Z" stroke="#4472C4" stroke-width="2.00044" stroke-miterlimit="8" fill="none" fill-rule="evenodd"/></g></svg>