<svg width="756" height="756" xmlns="http://www.w3.org/2000/svg" xmlns:xlink="http://www.w3.org/1999/xlink" overflow="hidden"><defs><clipPath id="clip0"><rect x="0" y="0" width="756" height="756"/></clipPath></defs><g clip-path="url(#clip0)"><rect x="0" y="0" width="756" height="756" fill="#FFFFFF"/><rect x="214" y="88" width="151" height="151" stroke="#000000" stroke-width="2.00044" stroke-miterlimit="8" fill="#FFFFFF"/><text font-family="Calibri,Calibri_MSFontService,sans-serif" font-weight="400" font-size="32" transform="translate(223.786 123)">(0, 0, 2)</text><rect x="365" y="88" width="152" height="151" stroke="#000000" stroke-width="2.00044" stroke-miterlimit="8" fill="#FFFFFF"/><text font-family="Calibri,Calibri_MSFontService,sans-serif" font-weight="400" font-size="32" transform="translate(375.001 123)">(0, 1, 2)</text><rect x="517" y="88" width="151" height="151" stroke="#000000" stroke-width="2.00044" stroke-miterlimit="8" fill="#FFFFFF"/><text font-family="Calibri,Calibri_MSFontService,sans-serif" font-weight="400" font-size="32" transform="translate(526.215 123)">(0, 2, 2)</text><rect x="517" y="239" width="151" height="152" stroke="#000000" stroke-width="2.00044" stroke-miterlimit="8" fill="#FFFFFF"/><rect x="516" y="391" width="151" height="151" stroke="#000000" stroke-width="2.00044" stroke-miterlimit="8" fill="#FFFFFF"/><rect x="214" y="239" width="151" height="152" stroke="#000000" stroke-width="2.00044" stroke-miterlimit="8" fill="#FFFFFF"/><rect x="214" y="391" width="151" height="151" stroke="#000000" stroke-width="2.00044" stroke-miterlimit="8" fill="#FFFFFF"/><rect x="365" y="239" width="152" height="152" stroke="#000000" stroke-width="2.00044" stroke-miterlimit="8" fill="#FFFFFF"/><rect x="365" y="391" width="152" height="151" stroke="#000000" stroke-width="2.00044" stroke-miterlimit="8" fill="#FFFFFF"/><rect x="215" y="88" width="453" height="454" stroke="#000000" stroke-width="4.00088" stroke-miterlimit="8" fill="none"/><rect x="151" y="151" width="151" height="151" stroke="#000000" stroke-width="2.00044" stroke-miterlimit="8" fill="#FFFFFF"/><text font-family="Calibri,Calibri_MSFontService,sans-serif" font-weight="400" font-size="32" transform="translate(160.78 186)">(0, 0, 1)</text><rect x="151" y="302" width="151" height="152" stroke="#000000" stroke-width="2.00044" stroke-miterlimit="8" fill="#FFFFFF"/><rect x="151" y="454" width="151" height="151" stroke="#000000" stroke-width="2.00044" stroke-miterlimit="8" fill="#FFFFFF"/><rect x="302" y="151" width="152" height="151" stroke="#000000" stroke-width="2.00044" stroke-miterlimit="8" fill="#FFFFFF"/><text font-family="Calibri,Calibri_MSFontService,sans-serif" font-weight="400" font-size="32" transform="translate(311.995 186)">(0, 1, 1)</text><rect x="302" y="302" width="152" height="152" stroke="#000000" stroke-width="2.00044" stroke-miterlimit="8" fill="#FFFFFF"/><rect x="302" y="454" width="152" height="151" stroke="#000000" stroke-width="2.00044" stroke-miterlimit="8" fill="#FFFFFF"/><rect x="454" y="151" width="151" height="151" stroke="#000000" stroke-width="2.00044" stroke-miterlimit="8" fill="#FFFFFF"/><text font-family="Calibri,Calibri_MSFontService,sans-serif" font-weight="400" font-size="32" transform="translate(463.209 186)">(0, 2, 1)</text><rect x="454" y="302" width="151" height="152" stroke="#000000" stroke-width="2.00044" stroke-miterlimit="8" fill="#FFFFFF"/><rect x="454" y="454" width="151" height="151" stroke="#000000" stroke-width="2.00044" stroke-miterlimit="8" fill="#FFFFFF"/><rect x="239" y="365" width="152" height="152" stroke="#000000" stroke-width="2.00044" stroke-miterlimit="8" fill="#FFFFFF"/><text font-family="Calibri,Calibri_MSFontService,sans-serif" font-weight="400" font-size="32" transform="translate(265.9 452)">(1, 1, 0)</text><rect x="88" y="214" width="151" height="151" stroke="#000000" stroke-width="2.00044" stroke-miterlimit="8" fill="#FFFFFF"/><text font-family="Calibri,Calibri_MSFontService,sans-serif" font-weight="400" font-size="32" transform="translate(114.685 301)">(0, 0, 0)</text><rect x="88" y="365" width="151" height="152" stroke="#000000" stroke-width="2.00044" stroke-miterlimit="8" fill="#FFFFFF"/><text font-family="Calibri,Calibri_MSFontService,sans-serif" font-weight="400" font-size="32" transform="translate(114.685 452)">(1, 0, 0)</text><rect x="88" y="517" width="151" height="151" stroke="#000000" stroke-width="2.00044" stroke-miterlimit="8" fill="#FFFFFF"/><text font-family="Calibri,Calibri_MSFontService,sans-serif" font-weight="400" font-size="32" transform="translate(114.685 603)">(2, 0, 0)</text><rect x="239" y="214" width="152" height="151" stroke="#000000" stroke-width="2.00044" stroke-miterlimit="8" fill="#FFFFFF"/><text font-family="Calibri,Calibri_MSFontService,sans-serif" font-weight="400" font-size="32" transform="translate(265.9 301)">(0, 1, 0)</text><rect x="239" y="517" width="152" height="151" stroke="#000000" stroke-width="2.00044" stroke-miterlimit="8" fill="#FFFFFF"/><text font-family="Calibri,Calibri_MSFontService,sans-serif" font-weight="400" font-size="32" transform="translate(265.9 603)">(2, 1, 0)</text><rect x="391" y="214" width="151" height="151" stroke="#000000" stroke-width="2.00044" stroke-miterlimit="8" fill="#FFFFFF"/><text font-family="Calibri,Calibri_MSFontService,sans-serif" font-weight="400" font-size="32" transform="translate(417.114 301)">(0, 2, 0)</text><rect x="391" y="365" width="151" height="152" stroke="#000000" stroke-width="2.00044" stroke-miterlimit="8" fill="#FFFFFF"/><text font-family="Calibri,Calibri_MSFontService,sans-serif" font-weight="400" font-size="32" transform="translate(417.114 452)">(1, 2, 0)</text><rect x="391" y="517" width="151" height="151" stroke="#000000" stroke-width="2.00044" stroke-miterlimit="8" fill="#FFFFFF"/><text font-family="Calibri,Calibri_MSFontService,sans-serif" font-weight="400" font-size="32" transform="translate(417.114 603)">(2, 2, 0)</text><rect x="88" y="214" width="453" height="454" stroke="#000000" stroke-width="4.00088" stroke-miterlimit="8" fill="none"/><path d="M0 0 126.012 126.012" stroke="#000000" stroke-width="4.00088" stroke-miterlimit="8" fill="none" fill-rule="evenodd" transform="matrix(1 0 0 -1 88 214.012)"/><path d="M0 0 126.012 126.012" stroke="#000000" stroke-width="4.00088" stroke-miterlimit="8" fill="none" fill-rule="evenodd" transform="matrix(1 0 0 -1 542 215.012)"/><path d="M0 0 126.012 126.012" stroke="#000000" stroke-width="4.00088" stroke-miterlimit="8" fill="none" fill-rule="evenodd" transform="matrix(1 0 0 -1 542 668.012)"/><path d="M0 0 126.012 126.012" stroke="#000000" stroke-width="2.00044" stroke-miterlimit="8" fill="none" fill-rule="evenodd" transform="matrix(1 0 0 -1 240 214.012)"/><path d="M0 0 126.012 126.012" stroke="#000000" stroke-width="2.00044" stroke-miterlimit="8" fill="none" fill-rule="evenodd" transform="matrix(1 0 0 -1 390 214.012)"/><path d="M0 0 126.012 126.012" stroke="#000000" stroke-width="2.00044" stroke-miterlimit="8" fill="none" fill-rule="evenodd" transform="matrix(1 0 0 -1 543 365.012)"/><path d="M0 0 126.012 126.012" stroke="#000000" stroke-width="2.00044" stroke-miterlimit="8" fill="none" fill-rule="evenodd" transform="matrix(1 0 0 -1 541 518.012)"/><path d="M314 229.688C431.809 229.688 527.312 256.914 527.312 290.5 527.312 324.086 431.809 351.312 314 351.312 196.191 351.312 100.688 324.086 100.688 290.5 100.688 262.055 169.855 237.41 267.203 231.169L262.468 218.497 293.228 234.903 275.505 253.391 270.773 240.725C160.983 246.703 91.3339 273.834 115.207 301.324 139.081 328.813 247.437 346.253 357.227 340.275 467.017 334.297 536.666 307.167 512.793 279.677 492.458 256.262 409.698 239.562 314 239.562Z" stroke="#70AD47" stroke-width="2.00044" stroke-miterlimit="8" fill="none" fill-rule="evenodd"/><path d="M314.5 378.78C431.982 378.78 527.22 406.189 527.22 440 527.22 473.811 431.982 501.221 314.5 501.221 197.018 501.221 101.78 473.811 101.78 440 101.78 411.411 170.535 386.628 267.41 380.299L262.643 367.539 293.59 384.036 275.768 402.667 271.003 389.914C161.617 395.989 92.4171 423.338 116.44 451 140.463 478.662 248.611 496.161 357.997 490.086 467.382 484.011 536.582 456.662 512.56 429 492.132 405.479 409.731 388.721 314.5 388.721Z" stroke="#70AD47" stroke-width="2.00044" stroke-miterlimit="8" fill="none" fill-rule="evenodd"/><path d="M315 531.688C432.809 531.688 528.312 558.914 528.312 592.5 528.312 626.086 432.809 653.312 315 653.312 197.191 653.312 101.688 626.086 101.688 592.5 101.688 564.055 170.855 539.41 268.203 533.169L263.468 520.497 294.228 536.903 276.505 555.391 271.773 542.725C161.983 548.703 92.3339 575.834 116.207 603.324 140.081 630.813 248.437 648.253 358.227 642.275 468.017 636.297 537.666 609.167 513.793 581.677 493.458 558.262 410.698 541.562 315 541.562Z" stroke="#70AD47" stroke-width="2.00044" stroke-miterlimit="8" fill="none" fill-rule="evenodd"/></g></svg>