<svg width="756" height="756" xmlns="http://www.w3.org/2000/svg" xmlns:xlink="http://www.w3.org/1999/xlink" overflow="hidden"><defs><clipPath id="clip0"><rect x="0" y="0" width="756" height="756"/></clipPath></defs><g clip-path="url(#clip0)"><rect x="0" y="0" width="756" height="756" fill="#FFFFFF"/><rect x="214" y="88" width="151" height="151" stroke="#000000" stroke-width="2.00044" stroke-miterlimit="8" fill="#FFFFFF"/><text font-family="Calibri,Calibri_MSFontService,sans-serif" font-weight="400" font-size="32" transform="translate(223.786 123)">(0, 0, 2)</text><rect x="365" y="88" width="152" height="151" stroke="#000000" stroke-width="2.00044" stroke-miterlimit="8" fill="#FFFFFF"/><text font-family="Calibri,Calibri_MSFontService,sans-serif" font-weight="400" font-size="32" transform="translate(375.001 123)">(0, 1, 2)</text><rect x="517" y="88" width="151" height="151" stroke="#000000" stroke-width="2.00044" stroke-miterlimit="8" fill="#FFFFFF"/><text font-family="Calibri,Calibri_MSFontService,sans-serif" font-weight="400" font-size="32" transform="translate(526.215 123)">(0, 2, 2)</text><rect x="517" y="239" width="151" height="152" stroke="#000000" stroke-width="2.00044" stroke-miterlimit="8" fill="#FFFFFF"/><rect x="516" y="391" width="151" height="151" stroke="#000000" stroke-width="2.00044" stroke-miterlimit="8" fill="#FFFFFF"/><rect x="214" y="239" width="151" height="152" stroke="#000000" stroke-width="2.00044" stroke-miterlimit="8" fill="#FFFFFF"/><rect x="214" y="391" width="151" height="151" stroke="#000000" stroke-width="2.00044" stroke-miterlimit="8" fill="#FFFFFF"/><rect x="365" y="239" width="152" height="152" stroke="#000000" stroke-width="2.00044" stroke-miterlimit="8" fill="#FFFFFF"/><rect x="365" y="391" width="152" height="151" stroke="#000000" stroke-width="2.00044" stroke-miterlimit="8" fill="#FFFFFF"/><rect x="215" y="88" width="453" height="454" stroke="#000000" stroke-width="4.00088" stroke-miterlimit="8" fill="none"/><rect x="151" y="151" width="151" height="151" stroke="#000000" stroke-width="2.00044" stroke-miterlimit="8" fill="#FFFFFF"/><text font-family="Calibri,Calibri_MSFontService,sans-serif" font-weight="400" font-size="32" transform="translate(160.78 186)">(0, 0, 1)</text><rect x="151" y="302" width="151" height="152" stroke="#000000" stroke-width="2.00044" stroke-miterlimit="8" fill="#FFFFFF"/><rect x="151" y="454" width="151" height="151" stroke="#000000" stroke-width="2.00044" stroke-miterlimit="8" fill="#FFFFFF"/><rect x="302" y="151" width="152" height="151" stroke="#000000" stroke-width="2.00044" stroke-miterlimit="8" fill="#FFFFFF"/><text font-family="Calibri,Calibri_MSFontService,sans-serif" font-weight="400" font-size="32" transform="translate(311.995 186)">(0, 1, 1)</text><rect x="302" y="302" width="152" height="152" stroke="#000000" stroke-width="2.00044" stroke-miterlimit="8" fill="#FFFFFF"/><rect x="302" y="454" width="152" height="151" stroke="#000000" stroke-width="2.00044" stroke-miterlimit="8" fill="#FFFFFF"/><rect x="454" y="151" width="151" height="151" stroke="#000000" stroke-width="2.00044" stroke-miterlimit="8" fill="#FFFFFF"/><text font-family="Calibri,Calibri_MSFontService,sans-serif" font-weight="400" font-size="32" transform="translate(463.209 186)">(0, 2, 1)</text><rect x="454" y="302" width="151" height="152" stroke="#000000" stroke-width="2.00044" stroke-miterlimit="8" fill="#FFFFFF"/><rect x="454" y="454" width="151" height="151" stroke="#000000" stroke-width="2.00044" stroke-miterlimit="8" fill="#FFFFFF"/><rect x="239" y="365" width="152" height="152" stroke="#000000" stroke-width="2.00044" stroke-miterlimit="8" fill="#FFFFFF"/><text font-family="Calibri,Calibri_MSFontService,sans-serif" font-weight="400" font-size="32" transform="translate(265.9 452)">(1, 1, 0)</text><rect x="88" y="214" width="151" height="151" stroke="#000000" stroke-width="2.00044" stroke-miterlimit="8" fill="#FFFFFF"/><text font-family="Calibri,Calibri_MSFontService,sans-serif" font-weight="400" font-size="32" transform="translate(114.685 301)">(0, 0, 0)</text><rect x="88" y="365" width="151" height="152" stroke="#000000" stroke-width="2.00044" stroke-miterlimit="8" fill="#FFFFFF"/><text font-family="Calibri,Calibri_MSFontService,sans-serif" font-weight="400" font-size="32" transform="translate(114.685 452)">(1, 0, 0)</text><rect x="88" y="517" width="151" height="151" stroke="#000000" stroke-width="2.00044" stroke-miterlimit="8" fill="#FFFFFF"/><text font-family="Calibri,Calibri_MSFontService,sans-serif" font-weight="400" font-size="32" transform="translate(114.685 603)">(2, 0, 0)</text><rect x="239" y="214" width="152" height="151" stroke="#000000" stroke-width="2.00044" stroke-miterlimit="8" fill="#FFFFFF"/><text font-family="Calibri,Calibri_MSFontService,sans-serif" font-weight="400" font-size="32" transform="translate(265.9 301)">(0, 1, 0)</text><rect x="239" y="517" width="152" height="151" stroke="#000000" stroke-width="2.00044" stroke-miterlimit="8" fill="#FFFFFF"/><text font-family="Calibri,Calibri_MSFontService,sans-serif" font-weight="400" font-size="32" transform="translate(265.9 603)">(2, 1, 0)</text><rect x="391" y="214" width="151" height="151" stroke="#000000" stroke-width="2.00044" stroke-miterlimit="8" fill="#FFFFFF"/><text font-family="Calibri,Calibri_MSFontService,sans-serif" font-weight="400" font-size="32" transform="translate(417.114 301)">(0, 2, 0)</text><rect x="391" y="365" width="151" height="152" stroke="#000000" stroke-width="2.00044" stroke-miterlimit="8" fill="#FFFFFF"/><text font-family="Calibri,Calibri_MSFontService,sans-serif" font-weight="400" font-size="32" transform="translate(417.114 452)">(1, 2, 0)</text><rect x="391" y="517" width="151" height="151" stroke="#000000" stroke-width="2.00044" stroke-miterlimit="8" fill="#FFFFFF"/><text font-family="Calibri,Calibri_MSFontService,sans-serif" font-weight="400" font-size="32" transform="translate(417.114 603)">(2, 2, 0)</text><rect x="88" y="214" width="453" height="454" stroke="#000000" stroke-width="4.00088" stroke-miterlimit="8" fill="none"/><path d="M0 0 126.012 126.012" stroke="#000000" stroke-width="4.00088" stroke-miterlimit="8" fill="none" fill-rule="evenodd" transform="matrix(1 0 0 -1 88 214.012)"/><path d="M0 0 126.012 126.012" stroke="#000000" stroke-width="4.00088" stroke-miterlimit="8" fill="none" fill-rule="evenodd" transform="matrix(1 0 0 -1 542 215.012)"/><path d="M0 0 126.012 126.012" stroke="#000000" stroke-width="4.00088" stroke-miterlimit="8" fill="none" fill-rule="evenodd" transform="matrix(1 0 0 -1 542 668.012)"/><path d="M0 0 126.012 126.012" stroke="#000000" stroke-width="2.00044" stroke-miterlimit="8" fill="none" fill-rule="evenodd" transform="matrix(1 0 0 -1 240 214.012)"/><path d="M0 0 126.012 126.012" stroke="#000000" stroke-width="2.00044" stroke-miterlimit="8" fill="none" fill-rule="evenodd" transform="matrix(1 0 0 -1 390 214.012)"/><path d="M0 0 126.012 126.012" stroke="#000000" stroke-width="2.00044" stroke-miterlimit="8" fill="none" fill-rule="evenodd" transform="matrix(1 0 0 -1 543 365.012)"/><path d="M0 0 126.012 126.012" stroke="#000000" stroke-width="2.00044" stroke-miterlimit="8" fill="none" fill-rule="evenodd" transform="matrix(1 0 0 -1 541 518.012)"/><path d="M102.688 441.5C102.688 323.967 129.915 228.688 163.5 228.688 197.085 228.688 224.312 323.967 224.312 441.5 224.312 559.033 197.085 654.312 163.5 654.312 135.066 654.312 110.428 585.361 104.176 488.292L91.5033 493.026 107.905 462.271 126.397 479.989 113.731 484.722C119.722 594.23 146.862 663.653 174.349 639.782 201.835 615.911 219.261 507.786 213.269 398.278 207.278 288.77 180.138 219.347 152.651 243.218 129.249 263.542 112.562 346.076 112.562 441.5Z" stroke="#4472C4" stroke-width="2.00044" stroke-miterlimit="8" fill="none" fill-rule="evenodd"/><path d="M252.688 441C252.688 323.191 279.914 227.688 313.5 227.688 347.086 227.688 374.312 323.191 374.312 441 374.312 558.809 347.086 654.312 313.5 654.312 285.055 654.312 260.41 585.145 254.169 487.797L241.497 492.532 257.903 461.772 276.391 479.495 263.725 484.227C269.703 594.017 296.834 663.666 324.324 639.792 351.813 615.919 369.253 507.563 363.275 397.773 357.297 287.983 330.167 218.334 302.677 242.207 279.262 262.542 262.562 345.302 262.562 441Z" stroke="#4472C4" stroke-width="2.00044" stroke-miterlimit="8" fill="none" fill-rule="evenodd"/><path d="M404.688 441C404.688 323.191 431.914 227.688 465.5 227.688 499.086 227.688 526.312 323.191 526.312 441 526.312 558.809 499.086 654.312 465.5 654.312 437.055 654.312 412.41 585.145 406.169 487.797L393.497 492.532 409.903 461.772 428.392 479.495 415.725 484.227C421.703 594.017 448.834 663.666 476.324 639.792 503.813 615.919 521.253 507.563 515.275 397.773 509.297 287.983 482.167 218.334 454.677 242.207 431.262 262.542 414.562 345.302 414.562 441Z" stroke="#4472C4" stroke-width="2.00044" stroke-miterlimit="8" fill="none" fill-rule="evenodd"/></g></svg>