<svg width="756" height="756" xmlns="http://www.w3.org/2000/svg" xmlns:xlink="http://www.w3.org/1999/xlink" overflow="hidden"><defs><clipPath id="clip0"><rect x="0" y="0" width="756" height="756"/></clipPath></defs><g clip-path="url(#clip0)"><rect x="0" y="0" width="756" height="756" fill="#FFFFFF"/><rect x="214" y="88" width="151" height="151" stroke="#000000" stroke-width="2.00044" stroke-miterlimit="8" fill="#FFFFFF"/><text font-family="Calibri,Calibri_MSFontService,sans-serif" font-weight="400" font-size="32" transform="translate(223.786 123)">(0, 0, 2)</text><rect x="365" y="88" width="152" height="151" stroke="#000000" stroke-width="2.00044" stroke-miterlimit="8" fill="#FFFFFF"/><text font-family="Calibri,Calibri_MSFontService,sans-serif" font-weight="400" font-size="32" transform="translate(375.001 123)">(0, 1, 2)</text><rect x="517" y="88" width="151" height="151" stroke="#000000" stroke-width="2.00044" stroke-miterlimit="8" fill="#FFFFFF"/><text font-family="Calibri,Calibri_MSFontService,sans-serif" font-weight="400" font-size="32" transform="translate(526.215 123)">(0, 2, 2)</text><rect x="517" y="239" width="151" height="152" stroke="#000000" stroke-width="2.00044" stroke-miterlimit="8" fill="#FFFFFF"/><rect x="516" y="391" width="151" height="151" stroke="#000000" stroke-width="2.00044" stroke-miterlimit="8" fill="#FFFFFF"/><rect x="214" y="239" width="151" height="152" stroke="#000000" stroke-width="2.00044" stroke-miterlimit="8" fill="#FFFFFF"/><rect x="214" y="391" width="151" height="151" stroke="#000000" stroke-width="2.00044" stroke-miterlimit="8" fill="#FFFFFF"/><rect x="365" y="239" width="152" height="152" stroke="#000000" stroke-width="2.00044" stroke-miterlimit="8" fill="#FFFFFF"/><rect x="365" y="391" width="152" height="151" stroke="#000000" stroke-width="2.00044" stroke-miterlimit="8" fill="#FFFFFF"/><rect x="215" y="88" width="453" height="454" stroke="#000000" stroke-width="4.00088" stroke-miterlimit="8" fill="none"/><rect x="151" y="151" width="151" height="151" stroke="#000000" stroke-width="2.00044" stroke-miterlimit="8" fill="#FFFFFF"/><text font-family="Calibri,Calibri_MSFontService,sans-serif" font-weight="400" font-size="32" transform="translate(160.78 186)">(0, 0, 1)</text><rect x="151" y="302" width="151" height="152" stroke="#000000" stroke-width="2.00044" stroke-miterlimit="8" fill="#FFFFFF"/><rect x="151" y="454" width="151" height="151" stroke="#000000" stroke-width="2.00044" stroke-miterlimit="8" fill="#FFFFFF"/><rect x="302" y="151" width="152" height="151" stroke="#000000" stroke-width="2.00044" stroke-miterlimit="8" fill="#FFFFFF"/><text font-family="Calibri,Calibri_MSFontService,sans-serif" font-weight="400" font-size="32" transform="translate(311.995 186)">(0, 1, 1)</text><rect x="302" y="302" width="152" height="152" stroke="#000000" stroke-width="2.00044" stroke-miterlimit="8" fill="#FFFFFF"/><rect x="302" y="454" width="152" height="151" stroke="#000000" stroke-width="2.00044" stroke-miterlimit="8" fill="#FFFFFF"/><rect x="454" y="151" width="151" height="151" stroke="#000000" stroke-width="2.00044" stroke-miterlimit="8" fill="#FFFFFF"/><text font-family="Calibri,Calibri_MSFontService,sans-serif" font-weight="400" font-size="32" transform="translate(463.209 186)">(0, 2, 1)</text><rect x="454" y="302" width="151" height="152" stroke="#000000" stroke-width="2.00044" stroke-miterlimit="8" fill="#FFFFFF"/><rect x="454" y="454" width="151" height="151" stroke="#000000" stroke-width="2.00044" stroke-miterlimit="8" fill="#FFFFFF"/><rect x="239" y="365" width="152" height="152" stroke="#000000" stroke-width="2.00044" stroke-miterlimit="8" fill="#FFFFFF"/><text font-family="Calibri,Calibri_MSFontService,sans-serif" font-weight="400" font-size="32" transform="translate(265.9 452)">(1, 1, 0)</text><rect x="88" y="214" width="151" height="151" stroke="#000000" stroke-width="2.00044" stroke-miterlimit="8" fill="#FFFFFF"/><text font-family="Calibri,Calibri_MSFontService,sans-serif" font-weight="400" font-size="32" transform="translate(114.685 301)">(0, 0, 0)</text><rect x="88" y="365" width="151" height="152" stroke="#000000" stroke-width="2.00044" stroke-miterlimit="8" fill="#FFFFFF"/><text font-family="Calibri,Calibri_MSFontService,sans-serif" font-weight="400" font-size="32" transform="translate(114.685 452)">(1, 0, 0)</text><rect x="88" y="517" width="151" height="151" stroke="#000000" stroke-width="2.00044" stroke-miterlimit="8" fill="#FFFFFF"/><text font-family="Calibri,Calibri_MSFontService,sans-serif" font-weight="400" font-size="32" transform="translate(114.685 603)">(2, 0, 0)</text><rect x="239" y="214" width="152" height="151" stroke="#000000" stroke-width="2.00044" stroke-miterlimit="8" fill="#FFFFFF"/><text font-family="Calibri,Calibri_MSFontService,sans-serif" font-weight="400" font-size="32" transform="translate(265.9 301)">(0, 1, 0)</text><rect x="239" y="517" width="152" height="151" stroke="#000000" stroke-width="2.00044" stroke-miterlimit="8" fill="#FFFFFF"/><text font-family="Calibri,Calibri_MSFontService,sans-serif" font-weight="400" font-size="32" transform="translate(265.9 603)">(2, 1, 0)</text><rect x="391" y="214" width="151" height="151" stroke="#000000" stroke-width="2.00044" stroke-miterlimit="8" fill="#FFFFFF"/><text font-family="Calibri,Calibri_MSFontService,sans-serif" font-weight="400" font-size="32" transform="translate(417.114 301)">(0, 2, 0)</text><rect x="391" y="365" width="151" height="152" stroke="#000000" stroke-width="2.00044" stroke-miterlimit="8" fill="#FFFFFF"/><text font-family="Calibri,Calibri_MSFontService,sans-serif" font-weight="400" font-size="32" transform="translate(417.114 452)">(1, 2, 0)</text><rect x="391" y="517" width="151" height="151" stroke="#000000" stroke-width="2.00044" stroke-miterlimit="8" fill="#FFFFFF"/><text font-family="Calibri,Calibri_MSFontService,sans-serif" font-weight="400" font-size="32" transform="translate(417.114 603)">(2, 2, 0)</text><path d="M0 0 126.012 126.012" stroke="#000000" stroke-width="4.00088" stroke-miterlimit="8" fill="none" fill-rule="evenodd" transform="matrix(1 0 0 -1 88 214.012)"/><path d="M0 0 126.012 126.012" stroke="#000000" stroke-width="4.00088" stroke-miterlimit="8" fill="none" fill-rule="evenodd" transform="matrix(1 0 0 -1 542 215.012)"/><path d="M0 0 126.012 126.012" stroke="#000000" stroke-width="4.00088" stroke-miterlimit="8" fill="none" fill-rule="evenodd" transform="matrix(1 0 0 -1 542 668.012)"/><rect x="88" y="214" width="453" height="454" stroke="#000000" stroke-width="4.00088" stroke-miterlimit="8" fill="none"/><path d="M0 0 126.012 126.012" stroke="#000000" stroke-width="2.00044" stroke-miterlimit="8" fill="none" fill-rule="evenodd" transform="matrix(1 0 0 -1 240 214.012)"/><path d="M0 0 126.012 126.012" stroke="#000000" stroke-width="2.00044" stroke-miterlimit="8" fill="none" fill-rule="evenodd" transform="matrix(1 0 0 -1 390 214.012)"/><path d="M0 0 126.012 126.012" stroke="#000000" stroke-width="2.00044" stroke-miterlimit="8" fill="none" fill-rule="evenodd" transform="matrix(1 0 0 -1 543 365.012)"/><path d="M0 0 126.012 126.012" stroke="#000000" stroke-width="2.00044" stroke-miterlimit="8" fill="none" fill-rule="evenodd" transform="matrix(1 0 0 -1 541 518.012)"/><path d="M274.491 126.679 288.757 126.663 288.773 140.929 285.203 137.367 187.596 235.194 180.454 228.068 278.062 130.242Z" stroke="#ED7D31" stroke-width="2.00044" stroke-miterlimit="8" fill="none" fill-rule="evenodd"/><path d="M168.959 170.6 182.586 170.585 182.601 184.211 179.19 180.808 127.51 232.605 120.689 225.8 172.37 174.003Z" stroke="#ED7D31" stroke-width="2.00044" stroke-miterlimit="8" fill="none" fill-rule="evenodd"/><path d="M418.072 130.213 432.339 130.197 432.355 144.464 428.784 140.901 331.177 238.728 324.036 231.603 421.643 133.776Z" stroke="#ED7D31" stroke-width="2.00044" stroke-miterlimit="8" fill="none" fill-rule="evenodd"/><path d="M312.541 174.135 326.167 174.119 326.182 187.745 322.772 184.343 271.091 236.139 264.271 229.334 315.951 177.537Z" stroke="#ED7D31" stroke-width="2.00044" stroke-miterlimit="8" fill="none" fill-rule="evenodd"/><path d="M569.738 132.775 584.005 132.759 584.021 147.025 580.45 143.463 482.843 241.289 475.702 234.164 573.309 136.337Z" stroke="#ED7D31" stroke-width="2.00044" stroke-miterlimit="8" fill="none" fill-rule="evenodd"/><path d="M464.207 176.696 477.833 176.681 477.848 190.307 474.438 186.904 422.757 238.701 415.936 231.895 467.617 180.099Z" stroke="#ED7D31" stroke-width="2.00044" stroke-miterlimit="8" fill="none" fill-rule="evenodd"/><path d="M625.925 191.518 640.093 191.503 640.109 205.67 636.563 202.132 525.204 313.741 518.113 306.665 629.471 195.056Z" stroke="#ED7D31" stroke-width="2.00044" stroke-miterlimit="8" fill="none" fill-rule="evenodd"/><path d="M549.139 228.647 563.911 228.63 563.927 243.402 560.23 239.713 522.042 277.987 514.648 270.61 552.836 232.336Z" stroke="#ED7D31" stroke-width="2.00044" stroke-miterlimit="8" fill="none" fill-rule="evenodd"/><path d="M624.737 342.774 638.904 342.758 638.92 356.926 635.374 353.388 524.016 464.997 516.924 457.921 628.282 346.312Z" stroke="#ED7D31" stroke-width="2.00044" stroke-miterlimit="8" fill="none" fill-rule="evenodd"/><path d="M547.951 379.903 562.722 379.886 562.739 394.657 559.042 390.969 520.854 429.243 513.46 421.866 551.648 383.591Z" stroke="#ED7D31" stroke-width="2.00044" stroke-miterlimit="8" fill="none" fill-rule="evenodd"/><path d="M627.252 490.966 641.42 490.95 641.435 505.117 637.89 501.58 526.531 613.188 519.44 606.112 630.798 494.504Z" stroke="#ED7D31" stroke-width="2.00044" stroke-miterlimit="8" fill="none" fill-rule="evenodd"/><path d="M550.466 528.094 565.238 528.078 565.254 542.849 561.557 539.16 523.369 577.434 515.975 570.057 554.163 531.783Z" stroke="#ED7D31" stroke-width="2.00044" stroke-miterlimit="8" fill="none" fill-rule="evenodd"/></g></svg>