<svg width="1280" height="567" xmlns="http://www.w3.org/2000/svg" xmlns:xlink="http://www.w3.org/1999/xlink" overflow="hidden"><defs><clipPath id="clip0"><rect x="0" y="0" width="1280" height="567"/></clipPath></defs><g clip-path="url(#clip0)"><rect x="0" y="0" width="1280" height="567" fill="#FFFFFF"/><rect x="104" y="41" width="152" height="151" stroke="#000000" stroke-width="2" stroke-miterlimit="8" fill="#FFFFFF"/><text font-family="Calibri,Calibri_MSFontService,sans-serif" font-weight="400" font-size="32" transform="translate(114.087 76)">5 items</text><rect x="104" y="192" width="152" height="152" stroke="#000000" stroke-width="2" stroke-miterlimit="8" fill="#FFFFFF"/><rect x="256" y="41" width="151" height="151" stroke="#000000" stroke-width="2" stroke-miterlimit="8" fill="#FFFFFF"/><text font-family="Calibri,Calibri_MSFontService,sans-serif" font-weight="400" font-size="32" transform="translate(265.268 76)">5 items</text><rect x="256" y="192" width="151" height="152" stroke="#000000" stroke-width="2" stroke-miterlimit="8" fill="#FFFFFF"/><rect x="105" y="43" width="301" height="301" stroke="#000000" stroke-width="4" stroke-miterlimit="8" fill="none"/><rect x="193" y="255" width="151" height="152" stroke="#000000" stroke-width="2" stroke-miterlimit="8" fill="#FFFFFF"/><rect x="41" y="104" width="152" height="151" stroke="#000000" stroke-width="2" stroke-miterlimit="8" fill="#FFFFFF"/><text font-family="Calibri,Calibri_MSFontService,sans-serif" font-weight="400" font-size="32" transform="translate(69.5916 139)">5 items</text><rect x="41" y="255" width="152" height="152" stroke="#000000" stroke-width="2" stroke-miterlimit="8" fill="#FFFFFF"/><rect x="193" y="104" width="151" height="151" stroke="#000000" stroke-width="2" stroke-miterlimit="8" fill="#FFFFFF"/><text font-family="Calibri,Calibri_MSFontService,sans-serif" font-weight="400" font-size="32" transform="translate(220.773 139)">5 items</text><path d="M0 0 63.8404 61.6733" stroke="#000000" stroke-width="4" stroke-miterlimit="8" fill="none" fill-rule="evenodd" transform="matrix(1 0 0 -1 41 104.673)"/><path d="M0 0 63.8403 64.4333" stroke="#000000" stroke-width="4" stroke-miterlimit="8" fill="none" fill-rule="evenodd" transform="matrix(1 0 0 -1 343 106.433)"/><path d="M0 0 62.1439 66.8913" stroke="#000000" stroke-width="4" stroke-miterlimit="8" fill="none" fill-rule="evenodd" transform="matrix(1 0 0 -1 345 409.891)"/><rect x="41" y="104" width="303" height="304" stroke="#000000" stroke-width="4" stroke-miterlimit="8" fill="none"/><path d="M0 0 62.0211 61.6733" stroke="#000000" stroke-width="2" stroke-miterlimit="8" fill="none" fill-rule="evenodd" transform="matrix(1 0 0 -1 193 103.673)"/><path d="M0 0 63.071 61.6733" stroke="#000000" stroke-width="2" stroke-miterlimit="8" fill="none" fill-rule="evenodd" transform="matrix(1 0 0 -1 343 253.673)"/><rect x="520" y="40" width="151" height="151" stroke="#000000" stroke-width="2" stroke-miterlimit="8" fill="#FFFFFF"/><text font-family="Calibri,Calibri_MSFontService,sans-serif" font-weight="400" font-size="32" transform="translate(529.915 75)">3 item</text><rect x="520" y="191" width="151" height="151" stroke="#000000" stroke-width="2" stroke-miterlimit="8" fill="#FFFFFF"/><rect x="671" y="40" width="152" height="151" stroke="#000000" stroke-width="2" stroke-miterlimit="8" fill="#FFFFFF"/><text font-family="Calibri,Calibri_MSFontService,sans-serif" font-weight="400" font-size="32" transform="translate(681.096 75)">3 items</text><rect x="671" y="191" width="152" height="151" stroke="#000000" stroke-width="2" stroke-miterlimit="8" fill="#FFFFFF"/><rect x="521" y="41" width="301" height="301" stroke="#000000" stroke-width="4" stroke-miterlimit="8" fill="none"/><rect x="609" y="254" width="151" height="151" stroke="#000000" stroke-width="2" stroke-miterlimit="8" fill="#FFFFFF"/><rect x="457" y="103" width="152" height="151" stroke="#000000" stroke-width="2" stroke-miterlimit="8" fill="#FFFFFF"/><text font-family="Calibri,Calibri_MSFontService,sans-serif" font-weight="400" font-size="32" transform="translate(491.67 138)">2 item</text><rect x="457" y="254" width="152" height="151" stroke="#000000" stroke-width="2" stroke-miterlimit="8" fill="#FFFFFF"/><rect x="609" y="103" width="151" height="151" stroke="#000000" stroke-width="2" stroke-miterlimit="8" fill="#FFFFFF"/><text font-family="Calibri,Calibri_MSFontService,sans-serif" font-weight="400" font-size="32" transform="translate(642.851 138)">2 item</text><path d="M0 0 63.8404 61.6733" stroke="#000000" stroke-width="4" stroke-miterlimit="8" fill="none" fill-rule="evenodd" transform="matrix(1 0 0 -1 457 102.673)"/><path d="M0 0 63.8403 64.4333" stroke="#000000" stroke-width="4" stroke-miterlimit="8" fill="none" fill-rule="evenodd" transform="matrix(1 0 0 -1 758 105.433)"/><path d="M0 0 62.1439 66.8913" stroke="#000000" stroke-width="4" stroke-miterlimit="8" fill="none" fill-rule="evenodd" transform="matrix(1 0 0 -1 761 407.891)"/><rect x="457" y="103" width="303" height="304" stroke="#000000" stroke-width="4" stroke-miterlimit="8" fill="none"/><path d="M0 0 62.0211 61.6733" stroke="#000000" stroke-width="2" stroke-miterlimit="8" fill="none" fill-rule="evenodd" transform="matrix(1 0 0 -1 609 102.673)"/><path d="M0 0 63.071 61.6733" stroke="#000000" stroke-width="2" stroke-miterlimit="8" fill="none" fill-rule="evenodd" transform="matrix(1 0 0 -1 759 252.673)"/><rect x="936" y="40" width="151" height="151" stroke="#000000" stroke-width="2" stroke-miterlimit="8" fill="#FFFFFF"/><text font-family="Calibri,Calibri_MSFontService,sans-serif" font-weight="400" font-size="32" transform="translate(945.744 75)">1 item</text><rect x="936" y="191" width="151" height="151" stroke="#000000" stroke-width="2" stroke-miterlimit="8" fill="#FFFFFF"/><rect x="1087" y="40" width="152" height="151" stroke="#000000" stroke-width="2" stroke-miterlimit="8" fill="#FFFFFF"/><text font-family="Calibri,Calibri_MSFontService,sans-serif" font-weight="400" font-size="32" transform="translate(1096.92 75)">2 items</text><rect x="1087" y="191" width="152" height="151" stroke="#000000" stroke-width="2" stroke-miterlimit="8" fill="#FFFFFF"/><rect x="937" y="41" width="301" height="301" stroke="#000000" stroke-width="4" stroke-miterlimit="8" fill="none"/><rect x="1024" y="254" width="152" height="151" stroke="#000000" stroke-width="2" stroke-miterlimit="8" fill="#FFFFFF"/><rect x="873" y="103" width="151" height="151" stroke="#000000" stroke-width="2" stroke-miterlimit="8" fill="#FFFFFF"/><text font-family="Calibri,Calibri_MSFontService,sans-serif" font-weight="400" font-size="32" transform="translate(907.499 138)">1 item</text><rect x="873" y="254" width="151" height="151" stroke="#000000" stroke-width="2" stroke-miterlimit="8" fill="#FFFFFF"/><rect x="1024" y="103" width="152" height="151" stroke="#000000" stroke-width="2" stroke-miterlimit="8" fill="#FFFFFF"/><text font-family="Calibri,Calibri_MSFontService,sans-serif" font-weight="400" font-size="32" transform="translate(1058.68 138)">1 item</text><path d="M0 0 63.8404 61.6733" stroke="#000000" stroke-width="4" stroke-miterlimit="8" fill="none" fill-rule="evenodd" transform="matrix(1 0 0 -1 873 102.673)"/><path d="M0 0 63.8403 64.4333" stroke="#000000" stroke-width="4" stroke-miterlimit="8" fill="none" fill-rule="evenodd" transform="matrix(1 0 0 -1 1174 105.433)"/><path d="M0 0 62.1439 66.8913" stroke="#000000" stroke-width="4" stroke-miterlimit="8" fill="none" fill-rule="evenodd" transform="matrix(1 0 0 -1 1177 407.891)"/><rect x="873" y="103" width="303" height="304" stroke="#000000" stroke-width="4" stroke-miterlimit="8" fill="none"/><path d="M0 0 62.0211 61.6733" stroke="#000000" stroke-width="2" stroke-miterlimit="8" fill="none" fill-rule="evenodd" transform="matrix(1 0 0 -1 1025 102.673)"/><path d="M0 0 63.071 61.6733" stroke="#000000" stroke-width="2" stroke-miterlimit="8" fill="none" fill-rule="evenodd" transform="matrix(1 0 0 -1 1175 252.673)"/><path d="M41 460.75 1181.5 460.75 1181.5 432 1239 489.5 1181.5 547 1181.5 518.25 41 518.25Z" stroke="#4472C4" stroke-width="4" stroke-miterlimit="8" fill="#FFFFFF" fill-rule="evenodd"/><text fill="#4472C4" font-family="Calibri,Calibri_MSFontService,sans-serif" font-weight="700" font-size="32" transform="translate(525.089 500)">Reduce<tspan x="97.5333" y="0">-</tspan><tspan x="107.367" y="0">Scatter</tspan></text></g></svg>